<svg width="40" height="40" viewBox="0 0 40 40" fill="none" xmlns="http://www.w3.org/2000/svg">
<path d="M0 20C0 8.95431 8.95431 0 20 0C31.0457 0 40 8.95431 40 20C40 31.0457 31.0457 40 20 40C8.95431 40 0 31.0457 0 20Z" fill="white"/>
<g clip-path="url(#clip0_635_9659)">
<path d="M25.4479 20.6051C25.4759 23.626 28.098 24.6313 28.127 24.6441C28.1048 24.715 27.708 26.0767 26.7456 27.4832C25.9136 28.6993 25.0501 29.9109 23.6898 29.9359C22.3533 29.9606 21.9234 29.1434 20.3953 29.1434C18.8676 29.1434 18.3901 29.9109 17.1248 29.9606C15.8118 30.0103 14.8119 28.6457 13.9731 27.434C12.2588 24.9557 10.9487 20.4309 12.7078 17.3765C13.5816 15.8597 15.1433 14.8992 16.8383 14.8746C18.1277 14.85 19.3447 15.742 20.1329 15.742C20.9206 15.742 22.3995 14.6693 23.9542 14.8269C24.605 14.854 26.432 15.0897 27.6052 16.8069C27.5106 16.8655 25.4252 18.0796 25.4479 20.6051M22.9359 13.1872C23.6331 12.3434 24.1022 11.1688 23.9742 10C22.9694 10.0404 21.7544 10.6696 21.0336 11.5129C20.3877 12.2597 19.8221 13.455 19.9747 14.6007C21.0947 14.6874 22.2388 14.0316 22.9359 13.1872Z" fill="black"/>
</g>
<defs>
<clipPath id="clip0_635_9659">
<rect width="16.26" height="20" fill="white" transform="translate(11.8701 10)"/>
</clipPath>
</defs>
</svg>
