<svg width="25" height="24" viewBox="0 0 25 24" fill="none" xmlns="http://www.w3.org/2000/svg">
<path fill-rule="evenodd" clip-rule="evenodd" d="M9.13996 3.84009C9.4627 3.8399 9.7773 3.94131 10.0392 4.12994C10.301 4.31856 10.4968 4.58482 10.5988 4.89095L11.4061 7.31428C11.7134 8.22995 12.4305 8.95101 13.3485 9.25623L15.7723 10.0654C16.0776 10.1678 16.3429 10.3635 16.5309 10.6249C16.7188 10.8862 16.82 11.1999 16.82 11.5218C16.82 11.8437 16.7188 12.1575 16.5309 12.4188C16.3429 12.6801 16.0776 12.8758 15.7723 12.9783L13.3485 13.7874C12.8962 13.9383 12.4853 14.1923 12.1482 14.5294C11.8111 14.8664 11.557 15.2772 11.4061 15.7294L10.5967 18.1527C10.4943 18.4579 10.2985 18.7231 10.0371 18.9111C9.77575 19.099 9.46192 19.2001 9.13996 19.2001C8.818 19.2001 8.50417 19.099 8.24278 18.9111C7.98139 18.7231 7.78564 18.4579 7.68317 18.1527L6.87384 15.7294C6.72292 15.2772 6.46885 14.8664 6.13173 14.5294C5.79462 14.1923 5.38369 13.9383 4.93146 13.7874L2.50757 12.9783C2.20235 12.8758 1.93703 12.6801 1.74906 12.4188C1.56109 12.1575 1.45996 11.8437 1.45996 11.5218C1.45996 11.1999 1.56109 10.8862 1.74906 10.6249C1.93703 10.3635 2.20235 10.1678 2.50757 10.0654L4.93146 9.25623C5.38369 9.10534 5.79462 8.85134 6.13173 8.51429C6.46885 8.17725 6.72292 7.76642 6.87384 7.31428L7.68317 4.89095C7.78505 4.58515 7.98054 4.31913 8.24198 4.13054C8.50343 3.94194 8.81757 3.84033 9.13996 3.84009Z" fill="white"/>
<path fill-rule="evenodd" clip-rule="evenodd" d="M18.9799 1.68018C19.1715 1.68007 19.3583 1.74028 19.5138 1.85227C19.6693 1.96427 19.7856 2.12236 19.8461 2.30413L20.3254 3.74298C20.5079 4.28666 20.9337 4.71479 21.4787 4.89601L22.9179 5.37644C23.0991 5.43727 23.2567 5.55347 23.3683 5.70863C23.4799 5.8638 23.5399 6.05009 23.5399 6.24121C23.5399 6.43233 23.4799 6.61863 23.3683 6.77379C23.2567 6.92896 23.0991 7.04516 22.9179 7.10599L21.4787 7.58641C21.2102 7.67601 20.9662 7.82682 20.7661 8.02694C20.5659 8.22706 20.415 8.47099 20.3254 8.73944L19.8449 10.1783C19.784 10.3595 19.6678 10.517 19.5126 10.6286C19.3574 10.7401 19.1711 10.8002 18.9799 10.8002C18.7888 10.8002 18.6024 10.7401 18.4472 10.6286C18.292 10.517 18.1758 10.3595 18.115 10.1783L17.6344 8.73944C17.5448 8.47099 17.3939 8.22706 17.1938 8.02694C16.9936 7.82682 16.7496 7.67601 16.4811 7.58641L15.0419 7.10599C14.8607 7.04516 14.7032 6.92896 14.5916 6.77379C14.48 6.61863 14.4199 6.43233 14.4199 6.24121C14.4199 6.05009 14.48 5.8638 14.5916 5.70863C14.7032 5.55347 14.8607 5.43727 15.0419 5.37644L16.4811 4.89601C16.7496 4.80642 16.9936 4.6556 17.1938 4.45549C17.3939 4.25537 17.5448 4.01143 17.6344 3.74298L18.115 2.30413C18.1754 2.12256 18.2915 1.96461 18.4467 1.85263C18.602 1.74065 18.7885 1.68032 18.9799 1.68018Z" fill="white"/>
<path fill-rule="evenodd" clip-rule="evenodd" d="M16.5802 14.6401C16.7416 14.64 16.8989 14.6907 17.0298 14.7851C17.1608 14.8794 17.2587 15.0125 17.3097 15.1656L17.7133 16.3772C17.867 16.8351 18.2255 17.1956 18.6845 17.3482L19.8964 17.7528C20.049 17.804 20.1817 17.9019 20.2757 18.0325C20.3697 18.1632 20.4202 18.3201 20.4202 18.481C20.4202 18.642 20.3697 18.7988 20.2757 18.9295C20.1817 19.0602 20.049 19.158 19.8964 19.2092L18.6845 19.6138C18.4584 19.6893 18.2529 19.8163 18.0843 19.9848C17.9158 20.1533 17.7888 20.3587 17.7133 20.5848L17.3086 21.7964C17.2574 21.949 17.1595 22.0817 17.0288 22.1756C16.8981 22.2696 16.7412 22.3201 16.5802 22.3201C16.4193 22.3201 16.2623 22.2696 16.1316 22.1756C16.0009 22.0817 15.9031 21.949 15.8518 21.7964L15.4472 20.5848C15.3717 20.3587 15.2447 20.1533 15.0761 19.9848C14.9076 19.8163 14.7021 19.6893 14.476 19.6138L13.264 19.2092C13.1114 19.158 12.9788 19.0602 12.8848 18.9295C12.7908 18.7988 12.7402 18.642 12.7402 18.481C12.7402 18.3201 12.7908 18.1632 12.8848 18.0325C12.9788 17.9019 13.1114 17.804 13.264 17.7528L14.476 17.3482C14.7021 17.2728 14.9076 17.1458 15.0761 16.9772C15.2447 16.8087 15.3717 16.6033 15.4472 16.3772L15.8518 15.1656C15.9028 15.0127 16.0005 14.8797 16.1312 14.7854C16.262 14.6911 16.419 14.6403 16.5802 14.6401Z" fill="white"/>
</svg>
