<svg width="24" height="24" viewBox="0 0 24 24" fill="none" xmlns="http://www.w3.org/2000/svg">
<path fill-rule="evenodd" clip-rule="evenodd" d="M8.63996 3.84006C8.9627 3.83987 9.2773 3.94128 9.53916 4.1299C9.80101 4.31853 9.99681 4.58479 10.0988 4.89092L10.9061 7.31425C11.2134 8.22992 11.9305 8.95098 12.8485 9.2562L15.2723 10.0653C15.5776 10.1678 15.8429 10.3635 16.0309 10.6248C16.2188 10.8862 16.32 11.1999 16.32 11.5218C16.32 11.8437 16.2188 12.1574 16.0309 12.4188C15.8429 12.6801 15.5776 12.8758 15.2723 12.9783L12.8485 13.7874C12.3962 13.9383 11.9853 14.1923 11.6482 14.5293C11.3111 14.8664 11.057 15.2772 10.9061 15.7293L10.0967 18.1527C9.99428 18.4578 9.79853 18.7231 9.53714 18.911C9.27575 19.099 8.96192 19.2001 8.63996 19.2001C8.318 19.2001 8.00417 19.099 7.74278 18.911C7.48139 18.7231 7.28564 18.4578 7.18317 18.1527L6.37384 15.7293C6.22292 15.2772 5.96885 14.8664 5.63173 14.5293C5.29462 14.1923 4.88369 13.9383 4.43146 13.7874L2.00757 12.9783C1.70235 12.8758 1.43703 12.6801 1.24906 12.4188C1.06109 12.1574 0.959961 11.8437 0.959961 11.5218C0.959961 11.1999 1.06109 10.8862 1.24906 10.6248C1.43703 10.3635 1.70235 10.1678 2.00757 10.0653L4.43146 9.2562C4.88369 9.10531 5.29462 8.8513 5.63173 8.51426C5.96885 8.17722 6.22292 7.76639 6.37384 7.31425L7.18317 4.89092C7.28505 4.58512 7.48054 4.3191 7.74198 4.1305C8.00343 3.94191 8.31757 3.8403 8.63996 3.84006Z" fill="url(#paint0_linear_2504_12177)"/>
<path fill-rule="evenodd" clip-rule="evenodd" d="M18.4799 1.68005C18.6715 1.67994 18.8583 1.74016 19.0138 1.85215C19.1693 1.96415 19.2856 2.12224 19.3461 2.304L19.8254 3.74286C20.0079 4.28653 20.4337 4.71466 20.9787 4.89589L22.4179 5.37632C22.5991 5.43715 22.7567 5.55335 22.8683 5.70851C22.9799 5.86368 23.0399 6.04997 23.0399 6.24109C23.0399 6.43221 22.9799 6.6185 22.8683 6.77367C22.7567 6.92884 22.5991 7.04504 22.4179 7.10586L20.9787 7.58629C20.7102 7.67588 20.4662 7.8267 20.2661 8.02682C20.0659 8.22694 19.915 8.47087 19.8254 8.73932L19.3449 10.1782C19.284 10.3594 19.1678 10.5169 19.0126 10.6284C18.8574 10.74 18.6711 10.8001 18.4799 10.8001C18.2888 10.8001 18.1024 10.74 17.9472 10.6284C17.792 10.5169 17.6758 10.3594 17.615 10.1782L17.1344 8.73932C17.0448 8.47087 16.8939 8.22694 16.6938 8.02682C16.4936 7.8267 16.2496 7.67588 15.9811 7.58629L14.5419 7.10586C14.3607 7.04504 14.2032 6.92884 14.0916 6.77367C13.98 6.6185 13.9199 6.43221 13.9199 6.24109C13.9199 6.04997 13.98 5.86368 14.0916 5.70851C14.2032 5.55335 14.3607 5.43715 14.5419 5.37632L15.9811 4.89589C16.2496 4.8063 16.4936 4.65548 16.6938 4.45536C16.8939 4.25525 17.0448 4.01131 17.1344 3.74286L17.615 2.304C17.6754 2.12243 17.7915 1.96448 17.9467 1.85251C18.102 1.74053 18.2885 1.6802 18.4799 1.68005Z" fill="url(#paint1_linear_2504_12177)"/>
<path fill-rule="evenodd" clip-rule="evenodd" d="M16.08 14.6401C16.2414 14.64 16.3987 14.6907 16.5296 14.785C16.6605 14.8793 16.7584 15.0124 16.8094 15.1655L17.2131 16.3772C17.3667 16.835 17.7253 17.1955 18.1842 17.3481L19.3962 17.7527C19.5488 17.8039 19.6815 17.9018 19.7754 18.0325C19.8694 18.1631 19.92 18.32 19.92 18.4809C19.92 18.6419 19.8694 18.7988 19.7754 18.9294C19.6815 19.0601 19.5488 19.158 19.3962 19.2092L18.1842 19.6137C17.9581 19.6892 17.7527 19.8162 17.5841 19.9847C17.4155 20.1532 17.2885 20.3587 17.2131 20.5847L16.8084 21.7964C16.7571 21.949 16.6593 22.0816 16.5286 22.1756C16.3979 22.2695 16.241 22.3201 16.08 22.3201C15.919 22.3201 15.7621 22.2695 15.6314 22.1756C15.5007 22.0816 15.4028 21.949 15.3516 21.7964L14.9469 20.5847C14.8715 20.3587 14.7444 20.1532 14.5759 19.9847C14.4073 19.8162 14.2019 19.6892 13.9757 19.6137L12.7638 19.2092C12.6112 19.158 12.4785 19.0601 12.3845 18.9294C12.2906 18.7988 12.24 18.6419 12.24 18.4809C12.24 18.32 12.2906 18.1631 12.3845 18.0325C12.4785 17.9018 12.6112 17.8039 12.7638 17.7527L13.9757 17.3481C14.2019 17.2727 14.4073 17.1457 14.5759 16.9772C14.7444 16.8087 14.8715 16.6032 14.9469 16.3772L15.3516 15.1655C15.4025 15.0126 15.5003 14.8796 15.631 14.7853C15.7617 14.691 15.9188 14.6402 16.08 14.6401Z" fill="url(#paint2_linear_2504_12177)"/>
<defs>
<linearGradient id="paint0_linear_2504_12177" x1="8.63996" y1="3.84006" x2="8.63996" y2="19.2001" gradientUnits="userSpaceOnUse">
<stop stop-color="#27AE60"/>
<stop offset="1" stop-color="#6EC994"/>
</linearGradient>
<linearGradient id="paint1_linear_2504_12177" x1="18.4799" y1="1.68005" x2="18.4799" y2="10.8001" gradientUnits="userSpaceOnUse">
<stop stop-color="#27AE60"/>
<stop offset="1" stop-color="#6EC994"/>
</linearGradient>
<linearGradient id="paint2_linear_2504_12177" x1="16.08" y1="14.6401" x2="16.08" y2="22.3201" gradientUnits="userSpaceOnUse">
<stop stop-color="#27AE60"/>
<stop offset="1" stop-color="#6EC994"/>
</linearGradient>
</defs>
</svg>
