<svg width="41" height="40" viewBox="0 0 41 40" fill="none" xmlns="http://www.w3.org/2000/svg">
<g clip-path="url(#clip0_2504_12181)">
<path d="M11.4553 10.5789C15.208 6.82644 21.2926 6.82632 25.0452 10.5789C28.6306 14.1646 28.7873 19.8771 25.5208 23.6522L26.011 24.1414L26.343 23.8104L26.4504 23.7215C26.7172 23.5437 27.0793 23.5679 27.3215 23.7957L32.8879 29.0301C33.0264 29.1603 33.1066 29.341 33.1096 29.5311C33.1125 29.7211 33.0379 29.9044 32.9036 30.0389L30.9143 32.0281C30.7798 32.1625 30.5966 32.2371 30.4065 32.2342C30.2164 32.2312 30.0358 32.151 29.9055 32.0125L24.6711 26.4461C24.4109 26.1694 24.4172 25.7362 24.6858 25.4676L25.0159 25.1365L24.5266 24.6463C20.7515 27.9113 15.0405 27.7537 11.4553 24.1688C7.70266 20.4161 7.70266 14.3316 11.4553 10.5789ZM26.1614 25.9793L30.4329 30.5203L31.3958 29.5574L26.8547 25.2859L26.1614 25.9793ZM24.05 11.5731C20.8466 8.36993 15.6529 8.36985 12.4495 11.5731C9.24598 14.7765 9.24598 19.9711 12.4495 23.1746C15.6528 26.3777 20.8466 26.3777 24.05 23.1746C27.2535 19.9712 27.2535 14.7765 24.05 11.5731ZM13.4426 12.5662C16.097 9.91236 20.4008 9.91212 23.0549 12.5662C25.7091 15.2204 25.7088 19.5242 23.0549 22.1785C20.4006 24.8328 16.0969 24.8328 13.4426 22.1785C10.7884 19.5242 10.7884 15.2205 13.4426 12.5662ZM20.2258 14.5057C19.838 14.5059 19.5231 14.821 19.5227 15.2088C19.5227 15.597 19.8377 15.9117 20.2258 15.9119H20.302L18.6086 17.6043L17.5198 16.5154C17.2454 16.2411 16.7993 16.2416 16.5247 16.5154L14.0022 19.0389C13.7278 19.3135 13.7277 19.7585 14.0022 20.033C14.2768 20.3074 14.7218 20.3074 14.9963 20.033L17.0217 18.0067L18.1116 19.0965C18.2433 19.2282 18.4223 19.3025 18.6086 19.3026C18.7948 19.3024 18.974 19.2281 19.1057 19.0965L21.2971 16.9051V16.9832C21.2974 17.3712 21.6122 17.6861 22.0002 17.6863C22.388 17.6858 22.7031 17.371 22.7034 16.9832V15.2088C22.7029 14.8211 22.3879 14.5062 22.0002 14.5057H20.2258Z" fill="#4FECCD"/>
</g>
<defs>
<clipPath id="clip0_2504_12181">
<rect width="24" height="24" fill="white" transform="translate(8.875 8)"/>
</clipPath>
</defs>
</svg>
