<svg width="25" height="24" viewBox="0 0 25 24" fill="none" xmlns="http://www.w3.org/2000/svg">
<path fill-rule="evenodd" clip-rule="evenodd" d="M12.3798 3.71579C12.1972 3.66261 12.0032 3.66261 11.8206 3.71579C11.768 3.7311 11.6756 3.7694 11.4791 3.91817C11.2725 4.07463 11.0195 4.29855 10.6253 4.64896L5.38566 9.3064C4.74331 9.87739 4.56121 10.0496 4.43461 10.24C4.31283 10.4232 4.22211 10.6252 4.1661 10.8379C4.10787 11.0591 4.10017 11.3095 4.10017 12.169V17.17C4.10017 18.041 4.10098 18.6331 4.13896 19.0905C4.17595 19.536 4.24297 19.7634 4.32535 19.9219C4.5151 20.2872 4.81294 20.5851 5.17823 20.7748C5.3368 20.8572 5.56419 20.9242 6.00963 20.9612C6.46703 20.9992 7.05915 21 7.93017 21H8.10017V18C8.10017 15.7909 9.89103 14 12.1002 14C14.3093 14 16.1002 15.7909 16.1002 18V21H16.2702C17.1412 21 17.7333 20.9992 18.1907 20.9612C18.6362 20.9242 18.8635 20.8572 19.0221 20.7748C19.3874 20.5851 19.6852 20.2872 19.875 19.9219C19.9574 19.7634 20.0244 19.536 20.0614 19.0905C20.0994 18.6331 20.1002 18.041 20.1002 17.17V12.169C20.1002 11.3095 20.0925 11.0591 20.0342 10.8379C19.9782 10.6252 19.8875 10.4232 19.7657 10.24C19.6391 10.0496 19.457 9.87739 18.8147 9.3064L13.5751 4.64896C13.1808 4.29855 12.9279 4.07463 12.7212 3.91817C12.5247 3.7694 12.4323 3.7311 12.3798 3.71579ZM11.2613 1.79556C11.8092 1.63602 12.3912 1.63602 12.939 1.79556C13.3191 1.90627 13.6343 2.10095 13.9285 2.32363C14.2054 2.53335 14.5174 2.81064 14.8766 3.12995L20.1434 7.81159C20.1718 7.83679 20.1998 7.86165 20.2274 7.88619C20.7491 8.34941 21.1432 8.69935 21.4313 9.13277C21.6749 9.49916 21.8563 9.90321 21.9683 10.3287C22.1008 10.832 22.1006 11.359 22.1002 12.0566C22.1002 12.0936 22.1002 12.131 22.1002 12.169V17.212C22.1002 18.0305 22.1002 18.7061 22.0545 19.2561C22.0071 19.8274 21.9052 20.3523 21.6498 20.8439C21.2703 21.5745 20.6746 22.1701 19.9441 22.5496C19.4524 22.805 18.9276 22.9069 18.3562 22.9543C17.8062 23 17.1307 23 16.3121 23H15.9052C15.8974 23 15.8896 23 15.8817 23C15.7605 23 15.6159 23.0001 15.4885 22.9895C15.3408 22.9773 15.1294 22.9458 14.9087 22.8311C14.6347 22.6888 14.4114 22.4654 14.2691 22.1915C14.1544 21.9707 14.1229 21.7593 14.1106 21.6116C14.1001 21.4843 14.1001 21.3396 14.1002 21.2185L14.1002 18C14.1002 16.8954 13.2047 16 12.1002 16C10.9956 16 10.1002 16.8954 10.1002 18L10.1002 21.2185C10.1002 21.3396 10.1003 21.4843 10.0897 21.6116C10.0774 21.7593 10.0459 21.9707 9.93129 22.1915C9.78898 22.4654 9.5656 22.6888 9.29164 22.8311C9.07092 22.9458 8.85951 22.9773 8.71182 22.9895C8.58445 23.0001 8.43981 23 8.31869 23C8.31075 23 8.3029 23 8.29517 23H7.8882C7.06966 23 6.39411 23 5.8441 22.9543C5.27275 22.9069 4.74791 22.805 4.25627 22.5496C3.5257 22.1701 2.93002 21.5745 2.55052 20.8439C2.29514 20.3523 2.19327 19.8274 2.14582 19.2561C2.10015 18.7061 2.10016 18.0305 2.10017 17.212L2.10017 12.169C2.10017 12.131 2.10015 12.0936 2.10013 12.0566C2.09977 11.359 2.0995 10.832 2.23202 10.3287C2.34405 9.90321 2.5255 9.49916 2.76906 9.13277C3.05718 8.69935 3.45127 8.34941 3.97294 7.8862C4.00058 7.86165 4.02857 7.83679 4.05693 7.81159L9.32376 3.12996C9.68296 2.81064 9.99489 2.53335 10.2719 2.32363C10.566 2.10095 10.8812 1.90627 11.2613 1.79556Z" fill="white" fill-opacity="0.3"/>
</svg>
