<svg width="25" height="24" viewBox="0 0 25 24" fill="none" xmlns="http://www.w3.org/2000/svg">
<path d="M24.6903 5.37426H0.810268C0.844554 5.23712 0.904554 5.09997 0.973125 4.96283L2.7217 1.7914C3.03884 1.20855 3.64741 0.857117 4.30741 0.857117H21.1931C21.8531 0.857117 22.4617 1.20855 22.7788 1.7914L24.5274 4.96283C24.596 5.09997 24.656 5.23712 24.6903 5.37426Z" fill="#A3A3A3"/>
<path d="M22.5934 12.2254C22.3149 12.2803 22.0286 12.3085 21.7449 12.3085C20.5783 12.3085 19.5326 11.8277 18.7646 11.064C17.9897 11.832 16.9251 12.3085 15.75 12.3085C14.5817 12.3085 13.5343 11.8268 12.7654 11.0631C11.9906 11.832 10.9251 12.3085 9.75 12.3085C8.58172 12.3085 7.53514 11.8277 6.76629 11.064C5.99229 11.832 4.92857 12.3085 3.75514 12.3085C3.47143 12.3085 3.18514 12.2803 2.90229 12.2254C2.79857 12.2057 2.70257 12.1654 2.60143 12.138V21.78C2.60143 22.7828 3.40714 23.5885 4.41 23.5885H6.162V15.2734C6.162 14.8705 6.48857 14.544 6.89143 14.544H11.3006C11.7034 14.544 12.03 14.8705 12.03 15.2734V23.5885H21.09C22.0929 23.5885 22.8986 22.7828 22.8986 21.78V12.1371C22.7966 12.1654 22.6989 12.2048 22.5934 12.2254ZM19.338 17.838C19.338 18.2408 19.0114 18.5674 18.6086 18.5674H16.0431C15.6403 18.5674 15.3137 18.2408 15.3137 17.838V15.2725C15.3137 14.8697 15.6403 14.5431 16.0431 14.5431H18.6086C19.0114 14.5431 19.338 14.8697 19.338 15.2725V17.838Z" fill="#A3A3A3"/>
<path d="M24.69 6.65997H0.81C0.789429 6.65997 0.770571 6.65397 0.75 6.65312V7.9114C0.75 9.35997 1.72714 10.6885 3.15 10.9628C5.07 11.34 6.75 9.87426 6.75 8.02283C6.75 9.67712 8.09571 11.0228 9.75 11.0228C11.4043 11.0228 12.75 9.67712 12.75 8.02283C12.75 9.67712 14.0957 11.0228 15.75 11.0228C17.4043 11.0228 18.75 9.67712 18.75 8.02283C18.75 9.87426 20.43 11.34 22.35 10.9628C23.7729 10.6885 24.75 9.35997 24.75 7.9114V6.65312C24.7294 6.65397 24.7106 6.65997 24.69 6.65997Z" fill="#A3A3A3"/>
</svg>
