<svg width="19" height="16" viewBox="0 0 19 16" fill="none" xmlns="http://www.w3.org/2000/svg">
<path opacity="0.15" d="M5.9375 0C6.56739 0 7.17148 0.240786 7.61688 0.669387C8.06228 1.09799 8.3125 1.6793 8.3125 2.28543V9.14172C8.3125 12.7184 6.35313 15.0758 2.66356 15.9637C2.51188 16.0014 2.35394 16.0098 2.19886 15.9885C2.04377 15.9672 1.8946 15.9166 1.75995 15.8395C1.62529 15.7625 1.5078 15.6606 1.41425 15.5397C1.3207 15.4187 1.25294 15.2812 1.21487 15.135C1.1768 14.9887 1.16918 14.8367 1.19243 14.6876C1.21569 14.5385 1.26938 14.3954 1.35039 14.2663C1.43141 14.1373 1.53815 14.025 1.66447 13.9358C1.7908 13.8467 1.93421 13.7825 2.08644 13.7469C4.731 13.1104 5.9375 11.6591 5.9375 9.14172V7.99901H2.375C1.77582 7.99919 1.1987 7.78143 0.759349 7.38937C0.319996 6.99732 0.0508764 6.45995 0.00593764 5.88498L0 5.71358V2.28543C0 1.6793 0.250222 1.09799 0.695621 0.669387C1.14102 0.240786 1.74511 0 2.375 0H5.9375ZM16.625 0C17.2549 0 17.859 0.240786 18.3044 0.669387C18.7498 1.09799 19 1.6793 19 2.28543V9.14172C19 12.7184 17.0406 15.0758 13.3511 15.9637C13.1994 16.0014 13.0414 16.0098 12.8864 15.9885C12.7313 15.9672 12.5821 15.9166 12.4474 15.8395C12.3128 15.7625 12.1953 15.6606 12.1017 15.5397C12.0082 15.4187 11.9404 15.2812 11.9024 15.135C11.8643 14.9887 11.8567 14.8367 11.8799 14.6876C11.9032 14.5385 11.9569 14.3954 12.0379 14.2663C12.1189 14.1373 12.2257 14.025 12.352 13.9358C12.4783 13.8467 12.6217 13.7825 12.7739 13.7469C15.4185 13.1104 16.625 11.6591 16.625 9.14172V7.99901H13.0625C12.4633 7.99919 11.8862 7.78143 11.4468 7.38937C11.0075 6.99732 10.7384 6.45995 10.6934 5.88498L10.6875 5.71358V2.28543C10.6875 1.6793 10.9377 1.09799 11.3831 0.669387C11.8285 0.240786 12.4326 0 13.0625 0H16.625Z" fill="white"/>
</svg>
