<svg width="25" height="24" viewBox="0 0 25 24" fill="none" xmlns="http://www.w3.org/2000/svg">
<path d="M19.7002 23.3001L19.1002 22.8001C17.1002 20.9001 15.7002 19.7001 15.7002 18.2001C15.7002 17.0001 16.7002 16.0001 17.9002 16.0001C18.6002 16.0001 19.3002 16.3001 19.7002 16.8001C20.1002 16.3001 20.8002 16.0001 21.5002 16.0001C22.7002 16.0001 23.7002 16.9001 23.7002 18.2001C23.7002 19.7001 22.3002 20.9001 20.3002 22.8001L19.7002 23.3001ZM18.7002 2.00012C19.8002 2.00012 20.7002 2.90012 20.7002 4.00012V13.0801L19.7002 13.0001L18.7002 13.0801V4.00012H13.7002V12.0001L11.2002 9.75012L8.7002 12.0001V4.00012H6.7002V20.0001H13.7802C13.9002 20.7201 14.1502 21.3901 14.5002 22.0001H6.7002C5.6002 22.0001 4.7002 21.1001 4.7002 20.0001V4.00012C4.7002 2.90012 5.6002 2.00012 6.7002 2.00012H18.7002Z" fill="white" fill-opacity="0.3"/>
</svg>
