<svg width="331" height="44" viewBox="0 0 331 44" fill="none" xmlns="http://www.w3.org/2000/svg">
<path d="M1.61084 21.8391C1.61084 10.7934 10.5651 1.83911 21.6108 1.83911H309.611C320.657 1.83911 329.611 10.7934 329.611 21.8391C329.611 32.8848 320.657 41.8391 309.611 41.8391H21.6108C10.5651 41.8391 1.61084 32.8848 1.61084 21.8391Z" fill="white" fill-opacity="0.72"/>
<path d="M33.9068 1.63471L33.8725 0.635295L33.9068 1.63471ZM51.7148 1.60085L51.678 2.60016L51.7148 1.60085ZM60.4068 1.59904L60.3713 2.59841L60.4068 1.59904ZM62.3148 1.66696L62.2793 2.66632L62.3148 1.66696ZM65.7068 1.81549L65.6549 2.81414L65.7068 1.81549ZM66.6608 1.86508L66.6089 2.86374L66.6608 1.86508ZM76.3068 2.01244L76.2659 1.01328L76.3068 2.01244ZM81.6068 1.95214L81.5553 2.95081L81.6068 1.95214ZM92.2068 2.07331L92.2001 1.07333L92.2068 2.07331ZM98.4608 2.00516L98.4443 1.0053L98.4608 2.00516ZM102.807 1.79558L102.71 0.800327L102.807 1.79558ZM104.715 1.60903L104.812 2.60429L104.715 1.60903ZM110.015 1.83534L109.907 2.82947L110.015 1.83534ZM113.407 1.99348L113.391 0.993606L113.407 1.99348ZM118.707 1.83127L118.644 0.833225L118.707 1.83127ZM124.007 1.75966L123.916 2.75556L124.007 1.75966ZM124.961 1.84624L125.051 0.850338L124.961 1.84624ZM125.915 1.93283L125.824 2.92874L125.915 1.93283ZM129.307 2.04885L129.284 1.0491L129.307 2.04885ZM134.607 1.91244L134.64 2.9119L134.607 1.91244ZM135.561 1.88103L135.528 0.881569L135.561 1.88103ZM141.815 2.0643L141.74 3.0615L141.815 2.0643ZM145.207 2.04997L145.29 3.0465L145.207 2.04997ZM146.161 1.97029L146.078 0.973758L146.161 1.97029ZM147.115 1.89061L147.198 2.88714L147.115 1.89061ZM150.507 1.77198L150.52 0.772071L150.507 1.77198ZM151.461 1.78493L151.474 0.785017L151.461 1.78493ZM152.415 1.79787L152.401 2.79778L152.415 1.79787ZM161.107 2.02655L161.086 1.02677L161.107 2.02655ZM168.315 1.56227L168.208 0.568035L168.315 1.56227ZM171.707 1.55886L171.602 2.5533L171.707 1.55886ZM173.615 1.76084L173.72 0.766393L173.615 1.76084ZM177.961 1.90302L177.947 0.903124L177.961 1.90302ZM182.307 1.90131L182.286 2.90109L182.307 1.90131ZM184.215 1.94141L184.194 2.94119L184.215 1.94141ZM189.515 2.16866L189.462 3.16725L189.515 2.16866ZM192.907 2.19932L192.872 1.19993L192.907 2.19932ZM193.861 2.16584L193.896 3.16523L193.861 2.16584ZM194.815 2.13237L194.78 1.13298L194.815 2.13237ZM198.207 2.108L198.186 3.10779L198.207 2.108ZM200.115 2.14754L200.094 3.14733L200.115 2.14754ZM203.507 2.11337L203.548 3.11254L203.507 2.11337ZM204.461 2.07438L204.42 1.07521L204.461 2.07438ZM205.415 2.03539L205.456 3.03455L205.415 2.03539ZM208.807 2.06851L208.747 3.0667L208.807 2.06851ZM209.761 2.12614L209.821 1.12796L209.761 2.12614ZM210.715 2.18377L210.655 3.18195L210.715 2.18377ZM215.061 2.18727L215.024 1.18796L215.061 2.18727ZM216.015 2.15165L215.978 1.15234L216.015 2.15165ZM220.361 2.12176L220.348 3.12168L220.361 2.12176ZM231.915 1.8823L231.882 2.88175L231.915 1.8823ZM235.307 1.98544L235.279 2.98506L235.307 1.98544ZM236.261 2.01164L236.288 1.01202L236.261 2.01164ZM237.215 2.03785L237.187 3.03747L237.215 2.03785ZM242.515 1.72552L242.416 0.730438L242.515 1.72552ZM245.907 1.77333L245.78 2.76527L245.907 1.77333ZM246.861 1.89524L246.988 0.903303L246.861 1.89524ZM247.815 2.01714L247.688 3.00908L247.815 2.01714ZM253.115 1.92409L253.029 0.927762L253.115 1.92409ZM257.461 1.80779L257.45 2.80773L257.461 1.80779ZM258.415 1.81841L258.404 2.81835L258.415 1.81841ZM261.807 1.81299L261.793 0.813091L261.807 1.81299ZM263.715 1.78566L263.729 2.78556L263.715 1.78566ZM267.107 1.69697L267.069 0.697688L267.107 1.69697ZM269.015 1.62451L269.053 2.62379L269.015 1.62451ZM272.407 1.51446L272.434 2.5141L272.407 1.51446ZM274.315 1.46311L274.288 0.463474L274.315 1.46311ZM277.707 1.6862L277.55 2.67388L277.707 1.6862ZM278.661 1.83736L278.817 0.849677L278.661 1.83736ZM279.615 1.98851L279.458 2.97619L279.615 1.98851ZM283.007 2.19559L283.043 3.19493L283.007 2.19559ZM283.961 2.16091L283.925 1.16157L283.961 2.16091ZM284.915 2.12623L284.951 3.12557L284.915 2.12623ZM288.307 1.8489L288.433 2.84091L288.307 1.8489ZM289.261 1.72758L289.135 0.735568L289.261 1.72758ZM290.215 1.60626L290.089 0.614249L290.215 1.60626ZM293.607 1.51301L293.535 2.51041L293.607 1.51301ZM294.561 1.58187L294.633 0.584466L294.561 1.58187ZM295.515 1.65073L295.443 2.64814L295.515 1.65073ZM298.907 1.67169L298.967 2.6699L298.907 1.67169ZM299.861 1.61461L299.801 0.616396L299.861 1.61461ZM300.815 1.55753L300.875 2.55575L300.815 1.55753ZM304.207 1.58112L304.133 2.57842L304.207 1.58112ZM306.115 1.72182L306.188 0.724524L306.115 1.72182ZM309.504 1.92902L309.552 0.930192L309.504 1.92902ZM311.408 2.02142L311.36 3.02025L311.408 2.02142ZM314.68 2.69317L314.33 3.62995L314.68 2.69317ZM316.456 3.35648L316.805 2.4197L316.456 3.35648ZM319.574 4.69336L319.138 5.59308L319.574 4.69336ZM321.307 5.53404L321.744 4.63431L321.307 5.53404ZM323.86 7.66337L323.053 8.25411L323.86 7.66337ZM324.429 8.44077L325.236 7.85003L324.429 8.44077ZM324.998 9.21818L324.191 9.80892L324.998 9.21818ZM326.772 12.0987L325.881 12.552L326.772 12.0987ZM327.201 12.9416L326.309 13.3949L327.201 12.9416ZM327.629 13.7845L328.52 13.3313L327.629 13.7845ZM328.803 16.9248L329.773 16.6813L328.803 16.9248ZM329.267 18.7718L328.297 19.0152L329.267 18.7718ZM329.581 22.1134L328.583 22.0562L329.581 22.1134ZM329.472 24.0257L330.47 24.0829L329.472 24.0257ZM328.911 27.3792L327.948 27.1092L328.911 27.3792ZM328.389 29.2396L329.352 29.5097L328.389 29.2396ZM326.906 32.2772L326.101 31.684L326.906 32.2772ZM326.332 33.0556L325.527 32.4624L326.332 33.0556ZM325.758 33.834L326.564 34.4272L325.758 33.834ZM323.386 36.2411L322.783 35.4435L323.386 36.2411ZM321.864 37.3923L322.467 38.1898L321.864 37.3923ZM319.061 39.33L318.528 38.4843L319.061 39.33ZM317.43 40.3588L317.964 41.2046L317.43 40.3588ZM314.272 41.4154L314.189 40.4188L314.272 41.4154ZM313.31 41.4953L313.228 40.4987L313.31 41.4953ZM312.349 41.5752L312.432 42.5717L312.349 41.5752ZM308.946 41.668L308.917 42.6676L308.946 41.668ZM307.993 41.6403L308.022 40.6408L307.993 41.6403ZM307.04 41.6127L307.01 42.6123L307.04 41.6127ZM303.649 41.7404L303.545 40.7458L303.649 41.7404ZM298.349 42.0092L298.286 43.0072L298.349 42.0092ZM297.395 41.9489L297.332 42.9469L297.395 41.9489ZM296.441 41.8886L296.504 40.8906L296.441 41.8886ZM293.049 41.7402L293.073 40.7405L293.049 41.7402ZM291.141 41.6939L291.117 42.6936L291.141 41.6939ZM287.749 41.8334L287.643 40.839L287.749 41.8334ZM285.841 42.0366L285.947 43.0309L285.841 42.0366ZM282.449 42.1316L282.399 43.1303L282.449 42.1316ZM280.541 42.0353L280.592 41.0365L280.541 42.0353ZM277.149 41.87L277.102 42.8689L277.149 41.87ZM275.241 41.7803L275.194 42.7792L275.241 41.7803ZM271.849 41.7879L271.798 40.7892L271.849 41.7879ZM269.941 41.886L269.993 42.8846L269.941 41.886ZM265.595 41.9298L265.612 40.93L265.595 41.9298ZM264.641 41.9142L264.625 42.9141L264.641 41.9142ZM261.249 41.7237L261.154 42.7191L261.249 41.7237ZM260.295 41.6321L260.391 40.6367L260.295 41.6321ZM259.341 41.5405L259.246 42.5359L259.341 41.5405ZM255.949 41.5883L255.826 40.596L255.949 41.5883ZM254.995 41.7068L255.118 42.6992L254.995 41.7068ZM254.041 41.8254L253.918 40.833L254.041 41.8254ZM250.649 42.0951L250.684 43.0945L250.649 42.0951ZM248.741 42.1616L248.776 43.1609L248.741 42.1616ZM245.349 42.0033L245.222 42.9952L245.349 42.0033ZM243.441 41.7589L243.568 40.767L243.441 41.7589ZM240.049 41.7914L239.903 40.8021L240.049 41.7914ZM239.095 41.932L239.241 42.9213L239.095 41.932ZM238.141 42.0726L237.995 41.0832L238.141 42.0726ZM234.749 42.2293L234.694 43.2278L234.749 42.2293ZM233.795 42.177L233.85 41.1785L233.795 42.177ZM232.841 42.1246L232.786 43.1231L232.841 42.1246ZM229.449 42.0571L229.464 43.057L229.449 42.0571ZM228.495 42.0715L228.48 41.0716L228.495 42.0715ZM227.541 42.0859L227.556 43.0858L227.541 42.0859ZM224.149 41.8705L224.29 40.8804L224.149 41.8705ZM223.195 41.7349L223.054 42.7249L223.195 41.7349ZM222.241 41.5993L222.382 40.6092L222.241 41.5993ZM218.849 41.4427L218.799 40.4439L218.849 41.4427ZM216.941 41.5376L216.991 42.5364L216.941 41.5376ZM213.549 41.6903L213.589 42.6894L213.549 41.6903ZM212.595 41.7286L212.555 40.7294L212.595 41.7286ZM211.641 41.767L211.681 42.7661L211.641 41.767ZM208.249 41.891L208.282 42.8905L208.249 41.891ZM206.341 41.9539L206.374 42.9533L206.341 41.9539ZM202.949 41.8789L203.026 40.8819L202.949 41.8789ZM201.041 41.7317L200.964 42.7287L201.041 41.7317ZM197.649 41.7134L197.583 40.7156L197.649 41.7134ZM196.695 41.7768L196.629 40.779L196.695 41.7768ZM195.741 41.8401L195.807 42.8379L195.741 41.8401ZM185.141 41.8596L185.136 40.8596L185.141 41.8596ZM181.749 41.8732L181.746 40.8732L181.749 41.8732ZM179.841 41.8786L179.844 42.8786L179.841 41.8786ZM176.449 41.9313L176.421 40.9317L176.449 41.9313ZM175.495 41.9582L175.523 42.9578L175.495 41.9582ZM174.541 41.9851L174.569 42.9847L174.541 41.9851ZM171.149 42.0257L171.153 41.0257L171.149 42.0257ZM169.241 42.0175L169.237 43.0175L169.241 42.0175ZM165.849 42.014L165.851 43.014L165.849 42.014ZM163.941 42.0182L163.939 41.0182L163.941 42.0182ZM160.549 41.8599L160.644 40.8644L160.549 41.8599ZM158.641 41.6776L158.546 42.673L158.641 41.6776ZM155.249 41.749L155.386 42.7396L155.249 41.749ZM153.341 42.0117L153.205 41.021L153.341 42.0117ZM149.949 42.2392L149.946 43.2392L149.949 42.2392ZM144.649 42.2373L144.656 43.2373L144.649 42.2373ZM142.741 42.2495L142.748 43.2494L142.741 42.2495ZM139.349 41.975L139.183 42.9612L139.349 41.975ZM137.441 41.6541L137.607 40.668L137.441 41.6541ZM134.049 41.5847L134.175 42.5767L134.049 41.5847ZM132.141 41.8275L132.267 42.8195L132.141 41.8275ZM123.449 42.0015L123.476 41.0019L123.449 42.0015ZM122.495 41.9755L122.468 42.9751L122.495 41.9755ZM121.541 41.9494L121.568 40.9498L121.541 41.9494ZM118.149 41.9059L118.148 40.9059L118.149 41.9059ZM116.241 41.909L116.243 42.909L116.241 41.909ZM112.849 41.8704L112.874 40.8707L112.849 41.8704ZM110.941 41.8239L110.966 40.8242L110.941 41.8239ZM107.549 41.8705L107.601 42.8692L107.549 41.8705ZM105.641 41.9695L105.589 40.9709L105.641 41.9695ZM102.249 41.9597L102.307 40.9614L102.249 41.9597ZM100.341 41.8498L100.284 42.8481L100.341 41.8498ZM96.9492 41.7043L96.921 42.7039L96.9492 41.7043ZM95.0412 41.6505L95.013 42.6501L95.0412 41.6505ZM91.6492 41.7813L91.5445 40.7868L91.6492 41.7813ZM90.6952 41.8817L90.7998 42.8762L90.6952 41.8817ZM89.7412 41.9821L89.6365 40.9876L89.7412 41.9821ZM86.3492 42.0392L86.2778 43.0367L86.3492 42.0392ZM85.3952 41.971L85.4665 40.9735L85.3952 41.971ZM84.4412 41.9028L84.3698 42.9002L84.4412 41.9028ZM81.0492 41.9509L81.1486 42.9459L81.0492 41.9509ZM79.1412 42.1415L79.0418 41.1465L79.1412 42.1415ZM74.7952 42.2014L74.7539 43.2005L74.7952 42.2014ZM73.8412 42.162L73.8825 41.1628L73.8412 42.162ZM70.4492 42.1109L70.4604 43.1109L70.4492 42.1109ZM69.4952 42.1217L69.5064 43.1216L69.4952 42.1217ZM68.5412 42.1324L68.5299 41.1325L68.5412 42.1324ZM65.1492 42.0225L65.2251 41.0253L65.1492 42.0225ZM63.2412 41.8772L63.3171 40.8801L63.2412 41.8772ZM59.8492 41.6189L59.9252 40.6217L59.8492 41.6189ZM58.8952 41.5462L58.8192 42.5433L58.8952 41.5462ZM57.9412 41.4735L58.0172 40.4764L57.9412 41.4735ZM54.5492 41.6159L54.391 40.6285L54.5492 41.6159ZM53.5952 41.7687L53.437 40.7813L53.5952 41.7687ZM52.6412 41.9215L52.7993 42.9089L52.6412 41.9215ZM49.2492 41.9902L49.368 40.9973L49.2492 41.9902ZM48.2952 41.876L48.414 40.8831L48.2952 41.876ZM47.3412 41.7618L47.2223 42.7547L47.3412 41.7618ZM43.9492 41.5475L43.9425 42.5475L43.9492 41.5475ZM38.6492 41.5723L38.6204 40.5727L38.6492 41.5723ZM37.6952 41.5998L37.7239 42.5994L37.6952 41.5998ZM36.7412 41.6273L36.7124 40.6277L36.7412 41.6273ZM33.3492 41.7136L33.3271 40.7138L33.3492 41.7136ZM31.4412 41.7558L31.4633 42.7555L31.4412 41.7558ZM28.0492 41.9608L27.9509 40.9656L28.0492 41.9608ZM27.0952 42.055L26.9969 41.0598L27.0952 42.055ZM26.1412 42.1492L26.0429 41.154L26.1412 42.1492ZM22.7518 42.1067L22.6287 43.0991L22.7518 42.1067ZM20.8468 41.8704L20.9699 40.878L20.8468 41.8704ZM17.477 41.3383L17.6657 40.3562L17.477 41.3383ZM15.5911 40.9759L15.4024 41.958L15.5911 40.9759ZM12.5344 39.6546L11.948 40.4646L12.5344 39.6546ZM10.9816 38.5304L11.568 37.7204L10.9816 38.5304ZM8.24381 36.4842L7.63312 37.276L8.24381 36.4842ZM6.71657 35.3064L6.10589 36.0982L6.71657 35.3064ZM4.67881 32.6856L3.76088 33.0823L4.67881 32.6856ZM4.29619 31.8003L5.21413 31.4035L4.29619 31.8003ZM3.91357 30.915L2.99564 31.3117L3.91357 30.915ZM2.91902 27.7043L3.90107 27.5157L2.91902 27.7043ZM2.7422 26.7835L1.76014 26.9721L2.7422 26.7835ZM2.56538 25.8628L1.58332 26.0514L2.56538 25.8628ZM2.97786 15.616L2.02544 15.3113L2.97786 15.616ZM5.01985 10.7443L4.11397 10.3208L5.01985 10.7443ZM6.94516 7.97196L6.23038 7.27261L6.94516 7.97196ZM8.3007 6.58651L7.58591 5.88716L8.3007 6.58651ZM11.0325 4.55123L10.5667 3.66635L11.0325 4.55123ZM20.2387 2.22571L19.9675 1.26319L20.2387 2.22571ZM20.9651 2.02104L20.6939 1.05851L20.9651 2.02104ZM24.2608 1.89916L24.2382 2.8989L25.1922 2.92052L25.2148 1.92078L25.2375 0.921033L24.2835 0.899416L24.2608 1.89916ZM25.2148 1.92078L25.1922 2.92052C26.3472 2.94669 27.5021 2.93076 28.657 2.87274L28.6068 1.874L28.5567 0.875264C27.4502 0.930849 26.3439 0.946103 25.2375 0.921033L25.2148 1.92078ZM28.6068 1.874L28.657 2.87274L29.611 2.82482L29.5608 1.82608L29.5107 0.827337L28.5567 0.875264L28.6068 1.874ZM29.5608 1.82608L29.611 2.82482L30.565 2.77689L30.5148 1.77815L30.4647 0.77941L29.5107 0.827337L29.5608 1.82608ZM30.5148 1.77815L30.565 2.77689C31.6904 2.72035 32.8158 2.67276 33.9412 2.63412L33.9068 1.63471L33.8725 0.635295C32.7366 0.674304 31.6006 0.722343 30.4647 0.77941L30.5148 1.77815ZM33.9068 1.63471L33.9412 2.63412L34.8952 2.60136L34.8608 1.60195L34.8265 0.602534L33.8725 0.635295L33.9068 1.63471ZM34.8608 1.60195L34.8952 2.60136L35.8492 2.5686L35.8148 1.56918L35.7805 0.569774L34.8265 0.602534L34.8608 1.60195ZM35.8148 1.56918L35.8492 2.5686C36.9532 2.53068 38.0571 2.53697 39.1612 2.58745L39.2068 1.58849L39.2525 0.589538C38.0952 0.536619 36.9379 0.53003 35.7805 0.569774L35.8148 1.56918ZM39.2068 1.58849L39.1612 2.58745L40.1152 2.63107L40.1608 1.63212L40.2065 0.63316L39.2525 0.589538L39.2068 1.58849ZM40.1608 1.63212L40.1152 2.63107L41.0692 2.67469L41.1148 1.67574L41.1605 0.676782L40.2065 0.63316L40.1608 1.63212ZM41.1148 1.67574L41.0692 2.67469C42.233 2.72791 43.3968 2.72317 44.5606 2.66049L44.5068 1.66193L44.4531 0.663382C43.3555 0.722502 42.258 0.726967 41.1605 0.676782L41.1148 1.67574ZM44.5068 1.66193L44.5606 2.66049L45.5146 2.6091L45.4608 1.61055L45.4071 0.611995L44.4531 0.663382L44.5068 1.66193ZM45.4608 1.61055L45.5146 2.6091L46.4686 2.55771L46.4148 1.55916L46.3611 0.560608L45.4071 0.611995L45.4608 1.61055ZM46.4148 1.55916L46.4686 2.55771C47.5691 2.49843 48.6695 2.48911 49.77 2.52973L49.8068 1.53041L49.8437 0.531093C48.6828 0.488239 47.5219 0.498079 46.3611 0.560608L46.4148 1.55916ZM49.8068 1.53041L49.77 2.52973L50.724 2.56495L50.7608 1.56563L50.7977 0.566309L49.8437 0.531093L49.8068 1.53041ZM50.7608 1.56563L50.724 2.56495L51.678 2.60016L51.7148 1.60085L51.7517 0.601526L50.7977 0.566309L50.7608 1.56563ZM51.7148 1.60085L51.678 2.60016C52.8287 2.64265 53.9796 2.65034 55.1304 2.62325L55.1068 1.62352L55.0833 0.6238C53.9728 0.649945 52.8623 0.642521 51.7517 0.601526L51.7148 1.60085ZM55.1068 1.62352L55.1304 2.62325L56.0844 2.60079L56.0608 1.60106L56.0373 0.601339L55.0833 0.6238L55.1068 1.62352ZM56.0608 1.60106L56.0844 2.60079L57.0384 2.57833L57.0148 1.5786L56.9913 0.578879L56.0373 0.601339L56.0608 1.60106ZM57.0148 1.5786L57.0384 2.57833C58.1493 2.55217 59.2603 2.55886 60.3713 2.59841L60.4068 1.59904L60.4424 0.599675C59.2921 0.558728 58.1417 0.551796 56.9913 0.578879L57.0148 1.5786ZM60.4068 1.59904L60.3713 2.59841L61.3253 2.63237L61.3608 1.633L61.3964 0.633632L60.4424 0.599675L60.4068 1.59904ZM61.3608 1.633L61.3253 2.63237L62.2793 2.66632L62.3148 1.66696L62.3504 0.66759L61.3964 0.633632L61.3608 1.633ZM62.3148 1.66696L62.2793 2.66632C63.4045 2.70638 64.5297 2.75565 65.6549 2.81414L65.7068 1.81549L65.7588 0.816839C64.6226 0.75778 63.4865 0.70803 62.3504 0.66759L62.3148 1.66696ZM65.7068 1.81549L65.6549 2.81414L66.6089 2.86374L66.6608 1.86508L66.7128 0.866432L65.7588 0.816839L65.7068 1.81549ZM66.6608 1.86508L66.6089 2.86374L67.5629 2.91333L67.6148 1.91468L67.6668 0.916025L66.7128 0.866432L66.6608 1.86508ZM67.6148 1.91468L67.5629 2.91333C68.7059 2.97274 69.8489 3.01099 70.9919 3.02805L71.0068 2.02817L71.0218 1.02828C69.9035 1.01158 68.7851 0.974162 67.6668 0.916025L67.6148 1.91468ZM71.0068 2.02817L70.9919 3.02805L71.9459 3.0423L71.9608 2.04241L71.9758 1.04252L71.0218 1.02828L71.0068 2.02817ZM71.9608 2.04241L71.9459 3.0423L72.8999 3.05654L72.9148 2.05665L72.9298 1.05677L71.9758 1.04252L71.9608 2.04241ZM72.9148 2.05665L72.8999 3.05654C74.0492 3.0737 75.1985 3.05872 76.3478 3.0116L76.3068 2.01244L76.2659 1.01328C75.1538 1.05888 74.0418 1.07337 72.9298 1.05677L72.9148 2.05665ZM76.3068 2.01244L76.3478 3.0116L77.3018 2.97249L77.2608 1.97333L77.2199 0.974168L76.2659 1.01328L76.3068 2.01244ZM77.2608 1.97333L77.3018 2.97249L78.2558 2.93338L78.2148 1.93421L78.1739 0.935054L77.2199 0.974168L77.2608 1.97333ZM78.2148 1.93421L78.2558 2.93338C79.3556 2.88828 80.4555 2.89409 81.5553 2.95081L81.6068 1.95214L81.6583 0.953468C80.4969 0.893572 79.3354 0.887433 78.1739 0.935054L78.2148 1.93421ZM81.6068 1.95214L81.5553 2.95081L82.5093 3.00001L82.5608 2.00134L82.6123 1.00267L81.6583 0.953468L81.6068 1.95214ZM82.5608 2.00134L82.5093 3.00001L83.4633 3.04921L83.5148 2.05054L83.5663 1.05186L82.6123 1.00267L82.5608 2.00134ZM83.5148 2.05054L83.4633 3.04921C84.6145 3.10857 85.7657 3.13248 86.9169 3.12092L86.9068 2.12097L86.8968 1.12102C85.7867 1.13217 84.6765 1.10912 83.5663 1.05186L83.5148 2.05054ZM86.9068 2.12097L86.9169 3.12092L87.8709 3.11134L87.8608 2.11139L87.8508 1.11144L86.8968 1.12102L86.9068 2.12097ZM87.8608 2.11139L87.8709 3.11134L88.8249 3.10176L88.8148 2.10181L88.8048 1.10186L87.8508 1.11144L87.8608 2.11139ZM88.8148 2.10181L88.8249 3.10176C89.9545 3.09042 91.084 3.08093 92.2136 3.07329L92.2068 2.07331L92.2001 1.07333C91.0683 1.08099 89.9366 1.0905 88.8048 1.10186L88.8148 2.10181ZM92.2068 2.07331L92.2136 3.07329L93.1676 3.06683L93.1608 2.06685L93.1541 1.06688L92.2001 1.07333L92.2068 2.07331ZM93.1608 2.06685L93.1676 3.06683L94.1216 3.06037L94.1148 2.0604L94.1081 1.06042L93.1541 1.06688L93.1608 2.06685ZM94.1148 2.0604L94.1216 3.06037C95.2555 3.0527 96.3894 3.0395 97.5234 3.02078L97.5068 2.02091L97.4903 1.02105C96.3629 1.03967 95.2355 1.05279 94.1081 1.06042L94.1148 2.0604ZM97.5068 2.02091L97.5234 3.02078L98.4773 3.00502L98.4608 2.00516L98.4443 1.0053L97.4903 1.02105L97.5068 2.02091ZM98.4608 2.00516L98.4773 3.00502L99.4314 2.98927L99.4148 1.98941L99.3983 0.989544L98.4443 1.0053L98.4608 2.00516ZM99.4148 1.98941L99.4314 2.98927C100.589 2.97015 101.747 2.904 102.904 2.79084L102.807 1.79558L102.71 0.800327C101.606 0.908261 100.502 0.971322 99.3983 0.989544L99.4148 1.98941ZM102.807 1.79558L102.904 2.79084L103.858 2.69756L103.761 1.70231L103.664 0.707052L102.71 0.800327L102.807 1.79558ZM103.761 1.70231L103.858 2.69756L104.812 2.60429L104.715 1.60903L104.618 0.613778L103.664 0.707052L103.761 1.70231ZM104.715 1.60903L104.812 2.60429C105.874 2.50043 106.936 2.50627 107.999 2.62187L108.107 1.62774L108.215 0.633609C107.016 0.503168 105.817 0.49654 104.618 0.613778L104.715 1.60903ZM108.107 1.62774L107.999 2.62187L108.953 2.72567L109.061 1.73154L109.169 0.737408L108.215 0.633609L108.107 1.62774ZM109.061 1.73154L108.953 2.72567L109.907 2.82947L110.015 1.83534L110.123 0.841207L109.169 0.737408L109.061 1.73154ZM110.015 1.83534L109.907 2.82947C111.078 2.95694 112.25 3.0116 113.422 2.99336L113.407 1.99348L113.391 0.993606C112.302 1.01055 111.213 0.959784 110.123 0.841207L110.015 1.83534ZM113.407 1.99348L113.422 2.99336L114.376 2.97852L114.361 1.97864L114.345 0.978763L113.391 0.993606L113.407 1.99348ZM114.361 1.97864L114.376 2.97852L115.33 2.96368L115.315 1.9638L115.299 0.963921L114.345 0.978763L114.361 1.97864ZM115.315 1.9638L115.33 2.96368C116.477 2.94584 117.623 2.90106 118.769 2.82932L118.707 1.83127L118.644 0.833225C117.529 0.90301 116.414 0.946573 115.299 0.963921L115.315 1.9638ZM118.707 1.83127L118.769 2.82932L119.723 2.76962L119.661 1.77157L119.598 0.773522L118.644 0.833225L118.707 1.83127ZM119.661 1.77157L119.723 2.76962L120.677 2.70991L120.615 1.71187L120.552 0.713818L119.598 0.773522L119.661 1.77157ZM120.615 1.71187L120.677 2.70991C121.757 2.64235 122.837 2.65755 123.916 2.75556L124.007 1.75966L124.097 0.763752C122.916 0.656527 121.734 0.639864 120.552 0.713818L120.615 1.71187ZM124.007 1.75966L123.916 2.75556L124.87 2.84215L124.961 1.84624L125.051 0.850338L124.097 0.763752L124.007 1.75966ZM124.961 1.84624L124.87 2.84215L125.824 2.92874L125.915 1.93283L126.005 0.936925L125.051 0.850338L124.961 1.84624ZM125.915 1.93283L125.824 2.92874C126.992 3.03475 128.161 3.07472 129.329 3.0486L129.307 2.04885L129.284 1.0491C128.192 1.07353 127.099 1.03616 126.005 0.936925L125.915 1.93283ZM129.307 2.04885L129.329 3.0486L130.283 3.02728L130.261 2.02753L130.238 1.02778L129.284 1.0491L129.307 2.04885ZM130.261 2.02753L130.283 3.02728L131.237 3.00595L131.215 2.0062L131.192 1.00645L130.238 1.02778L130.261 2.02753ZM131.215 2.0062L131.237 3.00595C132.371 2.9806 133.506 2.94925 134.64 2.9119L134.607 1.91244L134.574 0.912985C133.447 0.950103 132.32 0.98126 131.192 1.00645L131.215 2.0062ZM134.607 1.91244L134.64 2.9119L135.594 2.88049L135.561 1.88103L135.528 0.881569L134.574 0.912985L134.607 1.91244ZM135.561 1.88103L135.594 2.88049L136.548 2.84907L136.515 1.84961L136.482 0.850153L135.528 0.881569L135.561 1.88103ZM136.515 1.84961L136.548 2.84907C137.642 2.81302 138.737 2.83608 139.832 2.91827L139.907 1.92107L139.982 0.923879C138.815 0.836318 137.649 0.811732 136.482 0.850153L136.515 1.84961ZM139.907 1.92107L139.832 2.91827L140.786 2.98988L140.861 1.99269L140.936 0.995493L139.982 0.923879L139.907 1.92107ZM140.861 1.99269L140.786 2.98988L141.74 3.0615L141.815 2.0643L141.89 1.06711L140.936 0.995493L140.861 1.99269ZM141.815 2.0643L141.74 3.0615C142.923 3.15032 144.107 3.14532 145.29 3.0465L145.207 2.04997L145.124 1.05344C144.046 1.14348 142.968 1.14803 141.89 1.06711L141.815 2.0643ZM145.207 2.04997L145.29 3.0465L146.244 2.96682L146.161 1.97029L146.078 0.973758L145.124 1.05344L145.207 2.04997ZM146.161 1.97029L146.244 2.96682L147.198 2.88714L147.115 1.89061L147.032 0.894081L146.078 0.973758L146.161 1.97029ZM147.115 1.89061L147.198 2.88714C148.297 2.79539 149.395 2.75698 150.493 2.77189L150.507 1.77198L150.52 0.772071C149.357 0.756287 148.194 0.796969 147.032 0.894081L147.115 1.89061ZM150.507 1.77198L150.493 2.77189L151.447 2.78483L151.461 1.78493L151.474 0.785017L150.52 0.772071L150.507 1.77198ZM151.461 1.78493L151.447 2.78483L152.401 2.79778L152.415 1.79787L152.428 0.797964L151.474 0.785017L151.461 1.78493ZM152.415 1.79787L152.401 2.79778C153.521 2.81298 154.641 2.84606 155.761 2.89704L155.807 1.89807L155.852 0.899104C154.711 0.847167 153.57 0.813453 152.428 0.797964L152.415 1.79787ZM155.807 1.89807L155.761 2.89704L156.715 2.94045L156.761 1.94149L156.806 0.942519L155.852 0.899104L155.807 1.89807ZM156.761 1.94149L156.715 2.94045L157.669 2.98387L157.715 1.9849L157.76 0.985934L156.806 0.942519L156.761 1.94149ZM157.715 1.9849L157.669 2.98387C158.822 3.03633 159.975 3.05048 161.128 3.02633L161.107 2.02655L161.086 1.02677C159.977 1.04999 158.869 1.03638 157.76 0.985934L157.715 1.9849ZM161.107 2.02655L161.128 3.02633L162.082 3.00634L162.061 2.00656L162.04 1.00678L161.086 1.02677L161.107 2.02655ZM162.061 2.00656L162.082 3.00634L163.036 2.98635L163.015 1.98657L162.994 0.98679L162.04 1.00678L162.061 2.00656ZM163.015 1.98657L163.036 2.98635C164.195 2.96205 165.355 2.88736 166.514 2.76232L166.407 1.76809L166.3 0.773853C165.197 0.892744 164.096 0.963707 162.994 0.98679L163.015 1.98657ZM166.407 1.76809L166.514 2.76232L167.468 2.65941L167.361 1.66518L167.254 0.670944L166.3 0.773853L166.407 1.76809ZM167.361 1.66518L167.468 2.65941L168.422 2.5565L168.315 1.56227L168.208 0.568035L167.254 0.670944L167.361 1.66518ZM168.315 1.56227L168.422 2.5565C169.482 2.44215 170.542 2.44109 171.602 2.5533L171.707 1.55886L171.812 0.564412C170.611 0.43724 169.409 0.438451 168.208 0.568035L168.315 1.56227ZM171.707 1.55886L171.602 2.5533L172.556 2.65429L172.661 1.65985L172.766 0.665403L171.812 0.564412L171.707 1.55886ZM172.661 1.65985L172.556 2.65429L173.51 2.75528L173.615 1.76084L173.72 0.766393L172.766 0.665403L172.661 1.65985ZM173.615 1.76084L173.51 2.75528C174.68 2.87915 175.85 2.93287 177.021 2.91637L177.007 1.91647L176.993 0.91657C175.902 0.931941 174.811 0.881911 173.72 0.766393L173.615 1.76084ZM177.007 1.91647L177.021 2.91637L177.975 2.90293L177.961 1.90302L177.947 0.903124L176.993 0.91657L177.007 1.91647ZM177.961 1.90302L177.975 2.90293L178.929 2.88948L178.915 1.88958L178.901 0.889678L177.947 0.903124L177.961 1.90302ZM178.915 1.88958L178.929 2.88948C180.048 2.87371 181.167 2.87758 182.286 2.90109L182.307 1.90131L182.328 0.901535C181.185 0.87753 180.043 0.873577 178.901 0.889678L178.915 1.88958ZM182.307 1.90131L182.286 2.90109L183.24 2.92114L183.261 1.92136L183.282 0.921582L182.328 0.901535L182.307 1.90131ZM183.261 1.92136L183.24 2.92114L184.194 2.94119L184.215 1.94141L184.236 0.941629L183.282 0.921582L183.261 1.92136ZM184.215 1.94141L184.194 2.94119C185.314 2.96472 186.434 3.00626 187.554 3.06581L187.607 2.06722L187.66 1.06863C186.519 1.00795 185.377 0.965614 184.236 0.941629L184.215 1.94141ZM187.607 2.06722L187.554 3.06581L188.508 3.11653L188.561 2.11794L188.614 1.11935L187.66 1.06863L187.607 2.06722ZM188.561 2.11794L188.508 3.11653L189.462 3.16725L189.515 2.16866L189.568 1.17007L188.614 1.11935L188.561 2.11794ZM189.515 2.16866L189.462 3.16725C190.622 3.22892 191.782 3.23941 192.942 3.1987L192.907 2.19932L192.872 1.19993C191.771 1.23858 190.669 1.22862 189.568 1.17007L189.515 2.16866ZM192.907 2.19932L192.942 3.1987L193.896 3.16523L193.861 2.16584L193.826 1.16646L192.872 1.19993L192.907 2.19932ZM193.861 2.16584L193.896 3.16523L194.85 3.13175L194.815 2.13237L194.78 1.13298L193.826 1.16646L193.861 2.16584ZM194.815 2.13237L194.85 3.13175C195.962 3.09273 197.074 3.08474 198.186 3.10779L198.207 2.108L198.228 1.10822C197.078 1.0844 195.929 1.09266 194.78 1.13298L194.815 2.13237ZM198.207 2.108L198.186 3.10779L199.14 3.12756L199.161 2.12777L199.182 1.12799L198.228 1.10822L198.207 2.108ZM199.161 2.12777L199.14 3.12756L200.094 3.14733L200.115 2.14754L200.136 1.14776L199.182 1.12799L199.161 2.12777ZM200.115 2.14754L200.094 3.14733C201.245 3.17119 202.397 3.15959 203.548 3.11254L203.507 2.11337L203.466 1.11421C202.356 1.15958 201.246 1.17076 200.136 1.14776L200.115 2.14754ZM203.507 2.11337L203.548 3.11254L204.502 3.07355L204.461 2.07438L204.42 1.07521L203.466 1.11421L203.507 2.11337ZM204.461 2.07438L204.502 3.07355L205.456 3.03455L205.415 2.03539L205.374 1.03622L204.42 1.07521L204.461 2.07438ZM205.415 2.03539L205.456 3.03455C206.553 2.98972 207.65 3.00043 208.747 3.0667L208.807 2.06851L208.867 1.07033C207.703 1 206.538 0.98863 205.374 1.03622L205.415 2.03539ZM208.807 2.06851L208.747 3.0667L209.701 3.12432L209.761 2.12614L209.821 1.12796L208.867 1.07033L208.807 2.06851ZM209.761 2.12614L209.701 3.12432L210.655 3.18195L210.715 2.18377L210.775 1.18559L209.821 1.12796L209.761 2.12614ZM210.715 2.18377L210.655 3.18195C211.818 3.25221 212.981 3.26562 214.144 3.22219L214.107 2.22289L214.07 1.22358C212.971 1.26458 211.873 1.25192 210.775 1.18559L210.715 2.18377ZM214.107 2.22289L214.144 3.22219L215.098 3.18657L215.061 2.18727L215.024 1.18796L214.07 1.22358L214.107 2.22289ZM215.061 2.18727L215.098 3.18657L216.052 3.15095L216.015 2.15165L215.978 1.15234L215.024 1.18796L215.061 2.18727ZM216.015 2.15165L216.052 3.15095C217.166 3.10935 218.28 3.09559 219.394 3.10964L219.407 2.10972L219.419 1.1098C218.272 1.09533 217.125 1.10951 215.978 1.15234L216.015 2.15165ZM219.407 2.10972L219.394 3.10964L220.348 3.12168L220.361 2.12176L220.373 1.12184L219.419 1.1098L219.407 2.10972ZM220.361 2.12176L220.348 3.12168L221.302 3.13372L221.315 2.1338L221.327 1.13388L220.373 1.12184L220.361 2.12176ZM221.315 2.1338L221.302 3.13372C222.462 3.14835 223.621 3.11267 224.781 3.02668L224.707 2.02942L224.633 1.03216C223.531 1.11388 222.429 1.14778 221.327 1.13388L221.315 2.1338ZM224.707 2.02942L224.781 3.02668L225.735 2.95593L225.661 1.95867L225.587 0.961409L224.633 1.03216L224.707 2.02942ZM225.661 1.95867L225.735 2.95593L226.689 2.88518L226.615 1.88792L226.541 0.890658L225.587 0.961409L225.661 1.95867ZM226.615 1.88792L226.689 2.88518C227.784 2.80397 228.879 2.78163 229.974 2.81813L230.007 1.81869L230.04 0.819241C228.874 0.780348 227.707 0.804163 226.541 0.890658L226.615 1.88792ZM230.007 1.81869L229.974 2.81813L230.928 2.84994L230.961 1.85049L230.994 0.851049L230.04 0.819241L230.007 1.81869ZM230.961 1.85049L230.928 2.84994L231.882 2.88175L231.915 1.8823L231.948 0.882857L230.994 0.851049L230.961 1.85049ZM231.915 1.8823L231.882 2.88175C233.014 2.91951 234.147 2.95395 235.279 2.98506L235.307 1.98544L235.334 0.985812C234.206 0.954808 233.077 0.920489 231.948 0.882857L231.915 1.8823ZM235.307 1.98544L235.279 2.98506L236.233 3.01126L236.261 2.01164L236.288 1.01202L235.334 0.985812L235.307 1.98544ZM236.261 2.01164L236.233 3.01126L237.187 3.03747L237.215 2.03785L237.242 1.03822L236.288 1.01202L236.261 2.01164ZM237.215 2.03785L237.187 3.03747C238.36 3.06969 239.533 3.02738 240.706 2.91061L240.607 1.91553L240.508 0.920453C239.419 1.02889 238.331 1.06812 237.242 1.03822L237.215 2.03785ZM240.607 1.91553L240.706 2.91061L241.66 2.8156L241.561 1.82052L241.462 0.825445L240.508 0.920453L240.607 1.91553ZM241.561 1.82052L241.66 2.8156L242.614 2.72059L242.515 1.72552L242.416 0.730438L241.462 0.825445L241.561 1.82052ZM242.515 1.72552L242.614 2.72059C243.669 2.6155 244.724 2.63033 245.78 2.76527L245.907 1.77333L246.034 0.781398C244.828 0.627375 243.622 0.610327 242.416 0.730438L242.515 1.72552ZM245.907 1.77333L245.78 2.76527L246.734 2.88717L246.861 1.89524L246.988 0.903303L246.034 0.781398L245.907 1.77333ZM246.861 1.89524L246.734 2.88717L247.688 3.00908L247.815 2.01714L247.942 1.02521L246.988 0.903303L246.861 1.89524ZM247.815 2.01714L247.688 3.00908C248.889 3.16252 250.091 3.18771 251.292 3.08441L251.207 2.08809L251.121 1.09176C250.062 1.18284 249.002 1.16073 247.942 1.02521L247.815 2.01714ZM251.207 2.08809L251.292 3.08441L252.246 3.00241L252.161 2.00609L252.075 1.00976L251.121 1.09176L251.207 2.08809ZM252.161 2.00609L252.246 3.00241L253.2 2.92041L253.115 1.92409L253.029 0.927762L252.075 1.00976L252.161 2.00609ZM253.115 1.92409L253.2 2.92041C254.299 2.82599 255.397 2.7849 256.496 2.79712L256.507 1.79718L256.518 0.797243C255.355 0.784303 254.192 0.827822 253.029 0.927762L253.115 1.92409ZM256.507 1.79718L256.496 2.79712L257.45 2.80773L257.461 1.80779L257.472 0.807856L256.518 0.797243L256.507 1.79718ZM257.461 1.80779L257.45 2.80773L258.404 2.81835L258.415 1.81841L258.426 0.818469L257.472 0.807856L257.461 1.80779ZM258.415 1.81841L258.404 2.81835C259.543 2.83102 260.682 2.8292 261.821 2.81289L261.807 1.81299L261.793 0.813091C260.67 0.829161 259.548 0.830954 258.426 0.818469L258.415 1.81841ZM261.807 1.81299L261.821 2.81289L262.775 2.79922L262.761 1.79933L262.747 0.799429L261.793 0.813091L261.807 1.81299ZM262.761 1.79933L262.775 2.79922L263.729 2.78556L263.715 1.78566L263.701 0.785767L262.747 0.799429L262.761 1.79933ZM263.715 1.78566L263.729 2.78556C264.868 2.76926 266.006 2.73949 267.145 2.69625L267.107 1.69697L267.069 0.697688C265.946 0.740328 264.823 0.769688 263.701 0.785767L263.715 1.78566ZM267.107 1.69697L267.145 2.69625L268.099 2.66002L268.061 1.66074L268.023 0.661458L267.069 0.697688L267.107 1.69697ZM268.061 1.66074L268.099 2.66002L269.053 2.62379L269.015 1.62451L268.977 0.625228L268.023 0.661458L268.061 1.66074ZM269.015 1.62451L269.053 2.62379C270.18 2.58099 271.307 2.54442 272.434 2.5141L272.407 1.51446L272.38 0.51482C271.246 0.545346 270.111 0.582149 268.977 0.625228L269.015 1.62451ZM272.407 1.51446L272.434 2.5141L273.388 2.48842L273.361 1.48878L273.334 0.489147L272.38 0.51482L272.407 1.51446ZM273.361 1.48878L273.388 2.48842L274.342 2.46275L274.315 1.46311L274.288 0.463474L273.334 0.489147L273.361 1.48878ZM274.315 1.46311L274.342 2.46275C275.41 2.43399 276.48 2.50422 277.55 2.67388L277.707 1.6862L277.863 0.698518C276.673 0.509877 275.481 0.431375 274.288 0.463474L274.315 1.46311ZM277.707 1.6862L277.55 2.67388L278.504 2.82503L278.661 1.83736L278.817 0.849677L277.863 0.698518L277.707 1.6862ZM278.661 1.83736L278.504 2.82503L279.458 2.97619L279.615 1.98851L279.771 1.00083L278.817 0.849677L278.661 1.83736ZM279.615 1.98851L279.458 2.97619C280.652 3.16532 281.847 3.2384 283.043 3.19493L283.007 2.19559L282.971 1.19625C281.905 1.23498 280.839 1.17 279.771 1.00083L279.615 1.98851ZM283.007 2.19559L283.043 3.19493L283.997 3.16025L283.961 2.16091L283.925 1.16157L282.971 1.19625L283.007 2.19559ZM283.961 2.16091L283.997 3.16025L284.951 3.12557L284.915 2.12623L284.879 1.12689L283.925 1.16157L283.961 2.16091ZM284.915 2.12623L284.951 3.12557C286.112 3.08336 287.273 2.98846 288.433 2.84091L288.307 1.8489L288.181 0.856886C287.08 0.996907 285.979 1.08688 284.879 1.12689L284.915 2.12623ZM288.307 1.8489L288.433 2.84091L289.387 2.71959L289.261 1.72758L289.135 0.735568L288.181 0.856886L288.307 1.8489ZM289.261 1.72758L289.387 2.71959L290.341 2.59827L290.215 1.60626L290.089 0.614249L289.135 0.735568L289.261 1.72758ZM290.215 1.60626L290.341 2.59827C291.406 2.4628 292.471 2.43359 293.535 2.51041L293.607 1.51301L293.679 0.515603C292.482 0.429192 291.285 0.462155 290.089 0.614249L290.215 1.60626ZM293.607 1.51301L293.535 2.51041L294.489 2.57928L294.561 1.58187L294.633 0.584466L293.679 0.515603L293.607 1.51301ZM294.561 1.58187L294.489 2.57928L295.443 2.64814L295.515 1.65073L295.587 0.65333L294.633 0.584466L294.561 1.58187ZM295.515 1.65073L295.443 2.64814C296.617 2.73292 297.792 2.74018 298.967 2.6699L298.907 1.67169L298.847 0.673473C297.76 0.738493 296.674 0.731784 295.587 0.65333L295.515 1.65073ZM298.907 1.67169L298.967 2.6699L299.921 2.61283L299.861 1.61461L299.801 0.616396L298.847 0.673473L298.907 1.67169ZM299.861 1.61461L299.921 2.61283L300.875 2.55575L300.815 1.55753L300.755 0.559319L299.801 0.616396L299.861 1.61461ZM300.815 1.55753L300.875 2.55575C301.961 2.49076 303.047 2.49831 304.133 2.57842L304.207 1.58112L304.28 0.583831C303.105 0.49719 301.93 0.489013 300.755 0.559319L300.815 1.55753ZM304.207 1.58112L304.133 2.57842L305.087 2.64876L305.161 1.65147L305.234 0.654178L304.28 0.583831L304.207 1.58112ZM305.161 1.65147L305.087 2.64876L306.041 2.71911L306.115 1.72182L306.188 0.724524L305.234 0.654178L305.161 1.65147ZM306.115 1.72182L306.041 2.71911C307.18 2.8031 308.318 2.87267 309.455 2.92784L309.504 1.92902L309.552 0.930192C308.432 0.875839 307.311 0.807284 306.188 0.724524L306.115 1.72182ZM309.504 1.92902L309.455 2.92784L310.408 2.97405L310.456 1.97522L310.505 0.976395L309.552 0.930192L309.504 1.92902ZM310.456 1.97522L310.408 2.97405L311.36 3.02025L311.408 2.02142L311.457 1.0226L310.505 0.976395L310.456 1.97522ZM311.408 2.02142L311.36 3.02025C312.386 3.07004 313.375 3.27321 314.33 3.62995L314.68 2.69317L315.03 1.75639C313.88 1.32699 312.688 1.08233 311.457 1.0226L311.408 2.02142ZM314.68 2.69317L314.33 3.62995L315.218 3.9616L315.568 3.02482L315.918 2.08805L315.03 1.75639L314.68 2.69317ZM315.568 3.02482L315.218 3.9616L316.106 4.29326L316.456 3.35648L316.805 2.4197L315.918 2.08805L315.568 3.02482ZM316.456 3.35648L316.106 4.29326C317.128 4.67517 318.139 5.10838 319.138 5.59308L319.574 4.69336L320.011 3.79363C318.956 3.28197 317.888 2.82393 316.805 2.4197L316.456 3.35648ZM319.574 4.69336L319.138 5.59308L320.004 6.01342L320.441 5.1137L320.877 4.21397L320.011 3.79363L319.574 4.69336ZM320.441 5.1137L320.004 6.01342L320.871 6.43377L321.307 5.53404L321.744 4.63431L320.877 4.21397L320.441 5.1137ZM321.307 5.53404L320.871 6.43377C321.751 6.86069 322.475 7.46436 323.053 8.25411L323.86 7.66337L324.667 7.07263C323.896 6.01964 322.918 5.20376 321.744 4.63431L321.307 5.53404ZM323.86 7.66337L323.053 8.25411L323.622 9.03151L324.429 8.44077L325.236 7.85003L324.667 7.07263L323.86 7.66337ZM324.429 8.44077L323.622 9.03151L324.191 9.80892L324.998 9.21818L325.805 8.62744L325.236 7.85003L324.429 8.44077ZM324.998 9.21818L324.191 9.80892C324.835 10.6876 325.397 11.6019 325.881 12.552L326.772 12.0987L327.663 11.6455C327.13 10.5975 326.511 9.59146 325.805 8.62744L324.998 9.21818ZM326.772 12.0987L325.881 12.552L326.309 13.3949L327.201 12.9416L328.092 12.4884L327.663 11.6455L326.772 12.0987ZM327.201 12.9416L326.309 13.3949L326.738 14.2378L327.629 13.7845L328.52 13.3313L328.092 12.4884L327.201 12.9416ZM327.629 13.7845L326.738 14.2378C327.211 15.1695 327.577 16.1458 327.833 17.1682L328.803 16.9248L329.773 16.6813C329.48 15.5147 329.063 14.3975 328.52 13.3313L327.629 13.7845ZM328.803 16.9248L327.833 17.1682L328.065 18.0917L329.035 17.8483L330.005 17.6048L329.773 16.6813L328.803 16.9248ZM329.035 17.8483L328.065 18.0917L328.297 19.0152L329.267 18.7718L330.237 18.5283L330.005 17.6048L329.035 17.8483ZM329.267 18.7718L328.297 19.0152C328.547 20.0109 328.642 21.0234 328.583 22.0562L329.581 22.1134L330.58 22.1705C330.65 20.9368 330.536 19.7216 330.237 18.5283L329.267 18.7718ZM329.581 22.1134L328.583 22.0562L328.528 23.0124L329.527 23.0695L330.525 23.1267L330.58 22.1705L329.581 22.1134ZM329.527 23.0695L328.528 23.0124L328.474 23.9686L329.472 24.0257L330.47 24.0829L330.525 23.1267L329.527 23.0695ZM329.472 24.0257L328.474 23.9686C328.413 25.0291 328.238 26.0756 327.948 27.1092L328.911 27.3792L329.874 27.6493C330.202 26.478 330.401 25.2888 330.47 24.0829L329.472 24.0257ZM328.911 27.3792L327.948 27.1092L327.687 28.0394L328.65 28.3094L329.613 28.5795L329.874 27.6493L328.911 27.3792ZM328.65 28.3094L327.687 28.0394L327.426 28.9696L328.389 29.2396L329.352 29.5097L329.613 28.5795L328.65 28.3094ZM328.389 29.2396L327.426 28.9696C327.15 29.9556 326.709 30.8586 326.101 31.684L326.906 32.2772L327.711 32.8703C328.462 31.8506 329.01 30.7286 329.352 29.5097L328.389 29.2396ZM326.906 32.2772L326.101 31.684L325.527 32.4624L326.332 33.0556L327.137 33.6488L327.711 32.8703L326.906 32.2772ZM326.332 33.0556L325.527 32.4624L324.953 33.2408L325.758 33.834L326.564 34.4272L327.137 33.6488L326.332 33.0556ZM325.758 33.834L324.953 33.2408C324.33 34.0869 323.607 34.8202 322.783 35.4435L323.386 36.2411L323.989 37.0387C324.969 36.2977 325.827 35.4262 326.564 34.4272L325.758 33.834ZM323.386 36.2411L322.783 35.4435L322.022 36.0191L322.625 36.8167L323.228 37.6143L323.989 37.0387L323.386 36.2411ZM322.625 36.8167L322.022 36.0191L321.261 36.5947L321.864 37.3923L322.467 38.1898L323.228 37.6143L322.625 36.8167ZM321.864 37.3923L321.261 36.5947C320.381 37.2596 319.47 37.8895 318.528 38.4843L319.061 39.33L319.595 40.1758C320.585 39.5512 321.542 38.8892 322.467 38.1898L321.864 37.3923ZM319.061 39.33L318.528 38.4843L317.712 38.9987L318.246 39.8444L318.779 40.6902L319.595 40.1758L319.061 39.33ZM318.246 39.8444L317.712 38.9987L316.897 39.5131L317.43 40.3588L317.964 41.2046L318.779 40.6902L318.246 39.8444ZM317.43 40.3588L316.897 39.5131C316.066 40.0369 315.168 40.3374 314.189 40.4188L314.272 41.4154L314.354 42.4119C315.654 42.304 316.861 41.9001 317.964 41.2046L317.43 40.3588ZM314.272 41.4154L314.189 40.4188L313.228 40.4987L313.31 41.4953L313.393 42.4918L314.354 42.4119L314.272 41.4154ZM313.31 41.4953L313.228 40.4987L312.266 40.5786L312.349 41.5752L312.432 42.5717L313.393 42.4918L313.31 41.4953ZM312.349 41.5752L312.266 40.5786C311.164 40.6702 310.066 40.7001 308.975 40.6684L308.946 41.668L308.917 42.6676C310.084 42.7015 311.256 42.6695 312.432 42.5717L312.349 41.5752ZM308.946 41.668L308.975 40.6684L308.022 40.6408L307.993 41.6403L307.964 42.6399L308.917 42.6676L308.946 41.668ZM307.993 41.6403L308.022 40.6408L307.069 40.6131L307.04 41.6127L307.01 42.6123L307.964 42.6399L307.993 41.6403ZM307.04 41.6127L307.069 40.6131C305.894 40.579 304.72 40.6233 303.545 40.7458L303.649 41.7404L303.753 42.735C304.84 42.6216 305.926 42.5808 307.01 42.6123L307.04 41.6127ZM303.649 41.7404L303.545 40.7458L302.591 40.8453L302.695 41.8399L302.799 42.8345L303.753 42.735L303.649 41.7404ZM302.695 41.8399L302.591 40.8453L301.637 40.9449L301.741 41.9395L301.845 42.9341L302.799 42.8345L302.695 41.8399ZM301.741 41.9395L301.637 40.9449C300.562 41.0571 299.487 41.0791 298.412 41.0112L298.349 42.0092L298.286 43.0072C299.473 43.0822 300.659 43.0578 301.845 42.9341L301.741 41.9395ZM298.349 42.0092L298.412 41.0112L297.458 40.9509L297.395 41.9489L297.332 42.9469L298.286 43.0072L298.349 42.0092ZM297.395 41.9489L297.458 40.9509L296.504 40.8906L296.441 41.8886L296.378 42.8866L297.332 42.9469L297.395 41.9489ZM296.441 41.8886L296.504 40.8906C295.361 40.8183 294.217 40.7683 293.073 40.7405L293.049 41.7402L293.025 42.7399C294.143 42.767 295.26 42.8159 296.378 42.8866L296.441 41.8886ZM293.049 41.7402L293.073 40.7405L292.119 40.7174L292.095 41.7171L292.071 42.7168L293.025 42.7399L293.049 41.7402ZM292.095 41.7171L292.119 40.7174L291.165 40.6942L291.141 41.6939L291.117 42.6936L292.071 42.7168L292.095 41.7171ZM291.141 41.6939L291.165 40.6942C289.991 40.6657 288.817 40.714 287.643 40.839L287.749 41.8334L287.855 42.8278C288.943 42.7119 290.03 42.6673 291.117 42.6936L291.141 41.6939ZM287.749 41.8334L287.643 40.839L286.689 40.9406L286.795 41.935L286.901 42.9294L287.855 42.8278L287.749 41.8334ZM286.795 41.935L286.689 40.9406L285.735 41.0422L285.841 42.0366L285.947 43.0309L286.901 42.9294L286.795 41.935ZM285.841 42.0366L285.735 41.0422C284.656 41.1571 283.578 41.1873 282.5 41.1328L282.449 42.1316L282.399 43.1303C283.582 43.19 284.765 43.1569 285.947 43.0309L285.841 42.0366ZM282.449 42.1316L282.5 41.1328L281.546 41.0847L281.495 42.0834L281.445 43.0821L282.399 43.1303L282.449 42.1316ZM281.495 42.0834L281.546 41.0847L280.592 41.0365L280.541 42.0353L280.491 43.034L281.445 43.0821L281.495 42.0834ZM280.541 42.0353L280.592 41.0365C279.46 40.9794 278.328 40.9243 277.196 40.8711L277.149 41.87L277.102 42.8689C278.232 42.9219 279.361 42.977 280.491 43.034L280.541 42.0353ZM277.149 41.87L277.196 40.8711L276.242 40.8263L276.195 41.8252L276.148 42.8241L277.102 42.8689L277.149 41.87ZM276.195 41.8252L276.242 40.8263L275.288 40.7814L275.241 41.7803L275.194 42.7792L276.148 42.8241L276.195 41.8252ZM275.241 41.7803L275.288 40.7814C274.125 40.7268 272.961 40.7294 271.798 40.7892L271.849 41.7879L271.901 42.7866C272.998 42.7301 274.096 42.7277 275.194 42.7792L275.241 41.7803ZM271.849 41.7879L271.798 40.7892L270.844 40.8382L270.895 41.8369L270.947 42.8356L271.901 42.7866L271.849 41.7879ZM270.895 41.8369L270.844 40.8382L269.89 40.8873L269.941 41.886L269.993 42.8846L270.947 42.8356L270.895 41.8369ZM269.941 41.886L269.89 40.8873C268.782 40.9443 267.674 40.9637 266.566 40.9456L266.549 41.9454L266.533 42.9453C267.686 42.9642 268.839 42.9439 269.993 42.8846L269.941 41.886ZM266.549 41.9454L266.566 40.9456L265.612 40.93L265.595 41.9298L265.579 42.9297L266.533 42.9453L266.549 41.9454ZM265.595 41.9298L265.612 40.93L264.658 40.9144L264.641 41.9142L264.625 42.9141L265.579 42.9297L265.595 41.9298ZM264.641 41.9142L264.658 40.9144C263.553 40.8963 262.449 40.8343 261.345 40.7283L261.249 41.7237L261.154 42.7191C262.31 42.8302 263.468 42.8952 264.625 42.9141L264.641 41.9142ZM261.249 41.7237L261.345 40.7283L260.391 40.6367L260.295 41.6321L260.2 42.6275L261.154 42.7191L261.249 41.7237ZM260.295 41.6321L260.391 40.6367L259.437 40.5451L259.341 41.5405L259.246 42.5359L260.2 42.6275L260.295 41.6321ZM259.341 41.5405L259.437 40.5451C258.233 40.4295 257.029 40.4465 255.826 40.596L255.949 41.5883L256.072 42.5807C257.131 42.4492 258.188 42.4344 259.246 42.5359L259.341 41.5405ZM255.949 41.5883L255.826 40.596L254.872 40.7145L254.995 41.7068L255.118 42.6992L256.072 42.5807L255.949 41.5883ZM254.995 41.7068L254.872 40.7145L253.918 40.833L254.041 41.8254L254.164 42.8177L255.118 42.6992L254.995 41.7068ZM254.041 41.8254L253.918 40.833C252.816 40.9698 251.715 41.0574 250.614 41.0957L250.649 42.0951L250.684 43.0945C251.844 43.0541 253.005 42.9618 254.164 42.8177L254.041 41.8254ZM250.649 42.0951L250.614 41.0957L249.66 41.1289L249.695 42.1283L249.73 43.1277L250.684 43.0945L250.649 42.0951ZM249.695 42.1283L249.66 41.1289L248.706 41.1622L248.741 42.1616L248.776 43.1609L249.73 43.1277L249.695 42.1283ZM248.741 42.1616L248.706 41.1622C247.63 41.1996 246.554 41.1495 245.476 41.0114L245.349 42.0033L245.222 42.9952C246.406 43.1469 247.591 43.2022 248.776 43.1609L248.741 42.1616ZM245.349 42.0033L245.476 41.0114L244.522 40.8892L244.395 41.8811L244.268 42.873L245.222 42.9952L245.349 42.0033ZM244.395 41.8811L244.522 40.8892L243.568 40.767L243.441 41.7589L243.314 42.7507L244.268 42.873L244.395 41.8811ZM243.441 41.7589L243.568 40.767C242.347 40.6105 241.124 40.6222 239.903 40.8021L240.049 41.7914L240.195 42.7808C241.235 42.6275 242.274 42.6175 243.314 42.7507L243.441 41.7589ZM240.049 41.7914L239.903 40.8021L238.949 40.9427L239.095 41.932L239.241 42.9213L240.195 42.7808L240.049 41.7914ZM239.095 41.932L238.949 40.9427L237.995 41.0832L238.141 42.0726L238.287 43.0619L239.241 42.9213L239.095 41.932ZM238.141 42.0726L237.995 41.0832C236.931 41.2402 235.867 41.2892 234.804 41.2308L234.749 42.2293L234.694 43.2278C235.893 43.2936 237.09 43.2382 238.287 43.0619L238.141 42.0726ZM234.749 42.2293L234.804 41.2308L233.85 41.1785L233.795 42.177L233.74 43.1755L234.694 43.2278L234.749 42.2293ZM233.795 42.177L233.85 41.1785L232.896 41.1261L232.841 42.1246L232.786 43.1231L233.74 43.1755L233.795 42.177ZM232.841 42.1246L232.896 41.1261C231.742 41.0627 230.588 41.0398 229.434 41.0572L229.449 42.0571L229.464 43.057C230.572 43.0402 231.679 43.0623 232.786 43.1231L232.841 42.1246ZM229.449 42.0571L229.434 41.0572L228.48 41.0716L228.495 42.0715L228.51 43.0714L229.464 43.057L229.449 42.0571ZM228.495 42.0715L228.48 41.0716L227.526 41.086L227.541 42.0859L227.556 43.0858L228.51 43.0714L228.495 42.0715ZM227.541 42.0859L227.526 41.086C226.448 41.1023 225.369 41.0338 224.29 40.8804L224.149 41.8705L224.008 42.8605C225.19 43.0285 226.373 43.1036 227.556 43.0858L227.541 42.0859ZM224.149 41.8705L224.29 40.8804L223.336 40.7448L223.195 41.7349L223.054 42.7249L224.008 42.8605L224.149 41.8705ZM223.195 41.7349L223.336 40.7448L222.382 40.6092L222.241 41.5993L222.1 42.5893L223.054 42.7249L223.195 41.7349ZM222.241 41.5993L222.382 40.6092C221.189 40.4397 219.994 40.3844 218.799 40.4439L218.849 41.4427L218.899 42.4414C219.965 42.3883 221.032 42.4375 222.1 42.5893L222.241 41.5993ZM218.849 41.4427L218.799 40.4439L217.845 40.4914L217.895 41.4902L217.945 42.4889L218.899 42.4414L218.849 41.4427ZM217.895 41.4902L217.845 40.4914L216.891 40.5389L216.941 41.5376L216.991 42.5364L217.945 42.4889L217.895 41.4902ZM216.941 41.5376L216.891 40.5389C215.764 40.595 214.636 40.6457 213.509 40.6911L213.549 41.6903L213.589 42.6894C214.723 42.6439 215.857 42.5929 216.991 42.5364L216.941 41.5376ZM213.549 41.6903L213.509 40.6911L212.555 40.7294L212.595 41.7286L212.635 42.7278L213.589 42.6894L213.549 41.6903ZM212.595 41.7286L212.555 40.7294L211.601 40.7678L211.641 41.767L211.681 42.7661L212.635 42.7278L212.595 41.7286ZM211.641 41.767L211.601 40.7678C210.473 40.8131 209.344 40.8544 208.216 40.8916L208.249 41.891L208.282 42.8905C209.415 42.8531 210.548 42.8117 211.681 42.7661L211.641 41.767ZM208.249 41.891L208.216 40.8916L207.262 40.923L207.295 41.9225L207.328 42.9219L208.282 42.8905L208.249 41.891ZM207.295 41.9225L207.262 40.923L206.308 40.9544L206.341 41.9539L206.374 42.9533L207.328 42.9219L207.295 41.9225ZM206.341 41.9539L206.308 40.9544C205.214 40.9905 204.12 40.9663 203.026 40.8819L202.949 41.8789L202.872 42.876C204.039 42.966 205.207 42.9918 206.374 42.9533L206.341 41.9539ZM202.949 41.8789L203.026 40.8819L202.072 40.8083L201.995 41.8053L201.918 42.8023L202.872 42.876L202.949 41.8789ZM201.995 41.8053L202.072 40.8083L201.118 40.7347L201.041 41.7317L200.964 42.7287L201.918 42.8023L201.995 41.8053ZM201.041 41.7317L201.118 40.7347C199.94 40.6438 198.761 40.6374 197.583 40.7156L197.649 41.7134L197.715 42.7112C198.798 42.6393 199.881 42.6452 200.964 42.7287L201.041 41.7317ZM197.649 41.7134L197.583 40.7156L196.629 40.779L196.695 41.7768L196.761 42.7746L197.715 42.7112L197.649 41.7134ZM196.695 41.7768L196.629 40.779L195.675 40.8423L195.741 41.8401L195.807 42.8379L196.761 42.7746L196.695 41.7768ZM195.741 41.8401L195.675 40.8423C194.573 40.9154 193.472 40.9404 192.37 40.9172L192.349 41.9169L192.328 42.9167C193.488 42.9412 194.648 42.9149 195.807 42.8379L195.741 41.8401ZM192.349 41.9169L192.37 40.9172L191.416 40.897L191.395 41.8968L191.374 42.8966L192.328 42.9167L192.349 41.9169ZM191.395 41.8968L191.416 40.897L190.462 40.8769L190.441 41.8767L190.42 42.8765L191.374 42.8966L191.395 41.8968ZM190.441 41.8767L190.462 40.8769C189.323 40.8529 188.183 40.8438 187.044 40.8497L187.049 41.8497L187.054 42.8497C188.176 42.8439 189.298 42.8528 190.42 42.8765L190.441 41.8767ZM187.049 41.8497L187.044 40.8497L186.09 40.8547L186.095 41.8547L186.1 42.8547L187.054 42.8497L187.049 41.8497ZM186.095 41.8547L186.09 40.8547L185.136 40.8596L185.141 41.8596L185.146 42.8596L186.1 42.8547L186.095 41.8547ZM185.141 41.8596L185.136 40.8596C184.006 40.8655 182.876 40.87 181.746 40.8732L181.749 41.8732L181.752 42.8732C182.883 42.87 184.015 42.8655 185.146 42.8596L185.141 41.8596ZM181.749 41.8732L181.746 40.8732L180.792 40.8759L180.795 41.8759L180.798 42.8759L181.752 42.8732L181.749 41.8732ZM180.795 41.8759L180.792 40.8759L179.838 40.8786L179.841 41.8786L179.844 42.8786L180.798 42.8759L180.795 41.8759ZM179.841 41.8786L179.838 40.8786C178.699 40.8818 177.56 40.8995 176.421 40.9317L176.449 41.9313L176.477 42.9309C177.6 42.8992 178.722 42.8818 179.844 42.8786L179.841 41.8786ZM176.449 41.9313L176.421 40.9317L175.467 40.9586L175.495 41.9582L175.523 42.9578L176.477 42.9309L176.449 41.9313ZM175.495 41.9582L175.467 40.9586L174.513 40.9855L174.541 41.9851L174.569 42.9847L175.523 42.9578L175.495 41.9582ZM174.541 41.9851L174.513 40.9855C173.393 41.0171 172.273 41.0305 171.153 41.0257L171.149 42.0257L171.145 43.0257C172.286 43.0306 173.428 43.0169 174.569 42.9847L174.541 41.9851ZM171.149 42.0257L171.153 41.0257L170.199 41.0216L170.195 42.0216L170.191 43.0216L171.145 43.0257L171.149 42.0257ZM170.195 42.0216L170.199 41.0216L169.245 41.0175L169.241 42.0175L169.237 43.0175L170.191 43.0216L170.195 42.0216ZM169.241 42.0175L169.245 41.0175C168.113 41.0127 166.98 41.0115 165.847 41.014L165.849 42.014L165.851 43.014C166.98 43.0115 168.108 43.0127 169.237 43.0175L169.241 42.0175ZM165.849 42.014L165.847 41.014L164.893 41.0161L164.895 42.0161L164.897 43.0161L165.851 43.014L165.849 42.014ZM164.895 42.0161L164.893 41.0161L163.939 41.0182L163.941 42.0182L163.943 43.0182L164.897 43.0161L164.895 42.0161ZM163.941 42.0182L163.939 41.0182C162.841 41.0207 161.743 40.9694 160.644 40.8644L160.549 41.8599L160.454 42.8554C161.617 42.9665 162.78 43.0208 163.943 43.0182L163.941 42.0182ZM160.549 41.8599L160.644 40.8644L159.69 40.7733L159.595 41.7687L159.5 42.7642L160.454 42.8554L160.549 41.8599ZM159.595 41.7687L159.69 40.7733L158.736 40.6821L158.641 41.6776L158.546 42.673L159.5 42.7642L159.595 41.7687ZM158.641 41.6776L158.736 40.6821C157.528 40.5666 156.32 40.5921 155.113 40.7583L155.249 41.749L155.386 42.7396C156.44 42.5945 157.493 42.5724 158.546 42.673L158.641 41.6776ZM155.249 41.749L155.113 40.7583L154.159 40.8897L154.295 41.8803L154.432 42.871L155.386 42.7396L155.249 41.749ZM154.295 41.8803L154.159 40.8897L153.205 41.021L153.341 42.0117L153.478 43.0023L154.432 42.871L154.295 41.8803ZM153.341 42.0117L153.205 41.021C152.12 41.1704 151.036 41.243 149.953 41.2392L149.949 42.2392L149.946 43.2392C151.124 43.2434 152.301 43.1643 153.478 43.0023L153.341 42.0117ZM149.949 42.2392L149.953 41.2392L148.999 41.2359L148.995 42.2358L148.992 43.2358L149.946 43.2392L149.949 42.2392ZM148.995 42.2358L148.999 41.2359L148.045 41.2325L148.041 42.2325L148.038 43.2325L148.992 43.2358L148.995 42.2358ZM148.041 42.2325L148.045 41.2325C146.911 41.2285 145.777 41.2301 144.643 41.2373L144.649 42.2373L144.656 43.2373C145.783 43.2301 146.91 43.2285 148.038 43.2325L148.041 42.2325ZM144.649 42.2373L144.643 41.2373L143.689 41.2434L143.695 42.2434L143.702 43.2434L144.656 43.2373L144.649 42.2373ZM143.695 42.2434L143.689 41.2434L142.735 41.2495L142.741 42.2495L142.748 43.2494L143.702 43.2434L143.695 42.2434ZM142.741 42.2495L142.735 41.2495C141.663 41.2563 140.59 41.1696 139.515 40.9889L139.349 41.975L139.183 42.9612C140.37 43.1608 141.558 43.257 142.748 43.2494L142.741 42.2495ZM139.349 41.975L139.515 40.9889L138.561 40.8284L138.395 41.8146L138.229 42.8007L139.183 42.9612L139.349 41.975ZM138.395 41.8146L138.561 40.8284L137.607 40.668L137.441 41.6541L137.275 42.6403L138.229 42.8007L138.395 41.8146ZM137.441 41.6541L137.607 40.668C136.38 40.4617 135.151 40.4364 133.923 40.5927L134.049 41.5847L134.175 42.5767C135.208 42.4453 136.241 42.4663 137.275 42.6403L137.441 41.6541ZM134.049 41.5847L133.923 40.5927L132.969 40.7141L133.095 41.7061L133.221 42.6981L134.175 42.5767L134.049 41.5847ZM133.095 41.7061L132.969 40.7141L132.015 40.8355L132.141 41.8275L132.267 42.8195L133.221 42.6981L133.095 41.7061ZM132.141 41.8275L132.015 40.8355C130.926 40.9741 129.837 41.0438 128.748 41.0447L128.749 42.0447L128.75 43.0447C129.923 43.0437 131.095 42.9686 132.267 42.8195L132.141 41.8275ZM128.749 42.0447L128.748 41.0447L127.794 41.0455L127.795 42.0455L127.796 43.0455L128.75 43.0447L128.749 42.0447ZM127.795 42.0455L127.794 41.0455L126.84 41.0463L126.841 42.0463L126.842 43.0463L127.796 43.0455L127.795 42.0455ZM126.841 42.0463L126.84 41.0463C125.719 41.0473 124.598 41.0325 123.476 41.0019L123.449 42.0015L123.422 43.0011C124.562 43.0322 125.702 43.0473 126.842 43.0463L126.841 42.0463ZM123.449 42.0015L123.476 41.0019L122.522 40.9758L122.495 41.9755L122.468 42.9751L123.422 43.0011L123.449 42.0015ZM122.495 41.9755L122.522 40.9758L121.568 40.9498L121.541 41.9494L121.514 42.9491L122.468 42.9751L122.495 41.9755ZM121.541 41.9494L121.568 40.9498C120.428 40.9187 119.288 40.9041 118.148 40.9059L118.149 41.9059L118.151 42.9059C119.272 42.9041 120.393 42.9185 121.514 42.9491L121.541 41.9494ZM118.149 41.9059L118.148 40.9059L117.194 40.9075L117.195 41.9075L117.197 42.9075L118.151 42.9059L118.149 41.9059ZM117.195 41.9075L117.194 40.9075L116.24 40.909L116.241 41.909L116.243 42.909L117.197 42.9075L117.195 41.9075ZM116.241 41.909L116.24 40.909C115.118 40.9108 113.996 40.8981 112.874 40.8707L112.849 41.8704L112.825 42.8701C113.964 42.8979 115.103 42.9109 116.243 42.909L116.241 41.909ZM112.849 41.8704L112.874 40.8707L111.92 40.8475L111.895 41.8472L111.871 42.8469L112.825 42.8701L112.849 41.8704ZM111.895 41.8472L111.92 40.8475L110.966 40.8242L110.941 41.8239L110.917 42.8236L111.871 42.8469L111.895 41.8472ZM110.941 41.8239L110.966 40.8242C109.809 40.796 108.653 40.8119 107.497 40.8719L107.549 41.8705L107.601 42.8692C108.706 42.8118 109.812 42.7966 110.917 42.8236L110.941 41.8239ZM107.549 41.8705L107.497 40.8719L106.543 40.9214L106.595 41.92L106.647 42.9187L107.601 42.8692L107.549 41.8705ZM106.595 41.92L106.543 40.9214L105.589 40.9709L105.641 41.9695L105.693 42.9682L106.647 42.9187L106.595 41.92ZM105.641 41.9695L105.589 40.9709C104.495 41.0276 103.401 41.0245 102.307 40.9614L102.249 41.9597L102.192 42.9581C103.359 43.0254 104.526 43.0287 105.693 42.9682L105.641 41.9695ZM102.249 41.9597L102.307 40.9614L101.353 40.9064L101.295 41.9048L101.238 42.9031L102.192 42.9581L102.249 41.9597ZM101.295 41.9048L101.353 40.9064L100.399 40.8514L100.341 41.8498L100.284 42.8481L101.238 42.9031L101.295 41.9048ZM100.341 41.8498L100.399 40.8514C99.2583 40.7857 98.1178 40.7367 96.9773 40.7046L96.9492 41.7043L96.921 42.7039C98.0419 42.7354 99.1627 42.7835 100.284 42.8481L100.341 41.8498ZM96.9492 41.7043L96.9773 40.7046L96.0233 40.6778L95.9952 41.6774L95.967 42.677L96.921 42.7039L96.9492 41.7043ZM95.9952 41.6774L96.0233 40.6778L95.0693 40.6509L95.0412 41.6505L95.013 42.6501L95.967 42.677L95.9952 41.6774ZM95.0412 41.6505L95.0693 40.6509C93.8941 40.6179 92.7191 40.6632 91.5445 40.7868L91.6492 41.7813L91.7538 42.7758C92.8406 42.6614 93.9269 42.6196 95.013 42.6501L95.0412 41.6505ZM91.6492 41.7813L91.5445 40.7868L90.5905 40.8872L90.6952 41.8817L90.7998 42.8762L91.7538 42.7758L91.6492 41.7813ZM90.6952 41.8817L90.5905 40.8872L89.6365 40.9876L89.7412 41.9821L89.8458 42.9766L90.7998 42.8762L90.6952 41.8817ZM89.7412 41.9821L89.6365 40.9876C88.5641 41.1004 87.4924 41.1185 86.4205 41.0418L86.3492 42.0392L86.2778 43.0367C87.4673 43.1218 88.6569 43.1017 89.8458 42.9766L89.7412 41.9821ZM86.3492 42.0392L86.4205 41.0418L85.4665 40.9735L85.3952 41.971L85.3238 42.9685L86.2778 43.0367L86.3492 42.0392ZM85.3952 41.971L85.4665 40.9735L84.5125 40.9053L84.4412 41.9028L84.3698 42.9002L85.3238 42.9685L85.3952 41.971ZM84.4412 41.9028L84.5125 40.9053C83.3248 40.8203 82.137 40.8372 80.9497 40.9558L81.0492 41.9509L81.1486 42.9459C82.2226 42.8386 83.2962 42.8234 84.3698 42.9002L84.4412 41.9028ZM81.0492 41.9509L80.9497 40.9558L79.9958 41.0511L80.0952 42.0462L80.1946 43.0412L81.1486 42.9459L81.0492 41.9509ZM80.0952 42.0462L79.9958 41.0511L79.0418 41.1465L79.1412 42.1415L79.2406 43.1366L80.1946 43.0412L80.0952 42.0462ZM79.1412 42.1415L79.0418 41.1465C77.9577 41.2548 76.874 41.2865 75.7905 41.2417L75.7492 42.2408L75.7079 43.24C76.8857 43.2887 78.0634 43.2542 79.2406 43.1366L79.1412 42.1415ZM75.7492 42.2408L75.7905 41.2417L74.8365 41.2022L74.7952 42.2014L74.7539 43.2005L75.7079 43.24L75.7492 42.2408ZM74.7952 42.2014L74.8365 41.2022L73.8825 41.1628L73.8412 42.162L73.7999 43.1611L74.7539 43.2005L74.7952 42.2014ZM73.8412 42.162L73.8825 41.1628C72.7343 41.1153 71.5861 41.0981 70.4379 41.111L70.4492 42.1109L70.4604 43.1109C71.5736 43.0983 72.6867 43.1151 73.7999 43.1611L73.8412 42.162ZM70.4492 42.1109L70.4379 41.111L69.4839 41.1218L69.4952 42.1217L69.5064 43.1216L70.4604 43.1109L70.4492 42.1109ZM69.4952 42.1217L69.4839 41.1218L68.5299 41.1325L68.5412 42.1324L68.5524 43.1324L69.5064 43.1216L69.4952 42.1217ZM68.5412 42.1324L68.5299 41.1325C67.4284 41.1449 66.3268 41.1092 65.2251 41.0253L65.1492 42.0225L65.0733 43.0196C66.2329 43.1078 67.3926 43.1455 68.5524 43.1324L68.5412 42.1324ZM65.1492 42.0225L65.2251 41.0253L64.2711 40.9527L64.1952 41.9498L64.1193 42.9469L65.0733 43.0196L65.1492 42.0225ZM64.1952 41.9498L64.2711 40.9527L63.3171 40.8801L63.2412 41.8772L63.1653 42.8743L64.1193 42.9469L64.1952 41.9498ZM63.2412 41.8772L63.3171 40.8801C62.1864 40.794 61.0558 40.7079 59.9252 40.6217L59.8492 41.6189L59.7732 42.616C60.9039 42.7021 62.0346 42.7882 63.1653 42.8743L63.2412 41.8772ZM59.8492 41.6189L59.9252 40.6217L58.9712 40.5491L58.8952 41.5462L58.8192 42.5433L59.7732 42.616L59.8492 41.6189ZM58.8952 41.5462L58.9712 40.5491L58.0172 40.4764L57.9412 41.4735L57.8652 42.4706L58.8192 42.5433L58.8952 41.5462ZM57.9412 41.4735L58.0172 40.4764C56.8076 40.3842 55.5983 40.4351 54.391 40.6285L54.5492 41.6159L54.7073 42.6033C55.7614 42.4345 56.8134 42.3904 57.8652 42.4706L57.9412 41.4735ZM54.5492 41.6159L54.391 40.6285L53.437 40.7813L53.5952 41.7687L53.7533 42.7561L54.7073 42.6033L54.5492 41.6159ZM53.5952 41.7687L53.437 40.7813L52.483 40.9341L52.6412 41.9215L52.7993 42.9089L53.7533 42.7561L53.5952 41.7687ZM52.6412 41.9215L52.483 40.9341C51.4434 41.1006 50.406 41.1215 49.368 40.9973L49.2492 41.9902L49.1303 42.9831C50.3536 43.1295 51.5775 43.1046 52.7993 42.9089L52.6412 41.9215ZM49.2492 41.9902L49.368 40.9973L48.414 40.8831L48.2952 41.876L48.1763 42.8689L49.1303 42.9831L49.2492 41.9902ZM48.2952 41.876L48.414 40.8831L47.46 40.7689L47.3412 41.7618L47.2223 42.7547L48.1763 42.8689L48.2952 41.876ZM47.3412 41.7618L47.46 40.7689C46.2924 40.6292 45.1243 40.5553 43.9558 40.5475L43.9492 41.5475L43.9425 42.5475C45.0354 42.5548 46.1286 42.6238 47.2223 42.7547L47.3412 41.7618ZM43.9492 41.5475L43.9558 40.5475L43.0018 40.5412L42.9952 41.5411L42.9885 42.5411L43.9425 42.5475L43.9492 41.5475ZM42.9952 41.5411L43.0018 40.5412L42.0478 40.5348L42.0412 41.5348L42.0345 42.5348L42.9885 42.5411L42.9952 41.5411ZM42.0412 41.5348L42.0478 40.5348C40.9053 40.5272 39.7628 40.5398 38.6204 40.5727L38.6492 41.5723L38.6779 42.5719C39.7968 42.5397 40.9156 42.5273 42.0345 42.5348L42.0412 41.5348ZM38.6492 41.5723L38.6204 40.5727L37.6664 40.6002L37.6952 41.5998L37.7239 42.5994L38.6779 42.5719L38.6492 41.5723ZM37.6952 41.5998L37.6664 40.6002L36.7124 40.6277L36.7412 41.6273L36.77 42.6268L37.7239 42.5994L37.6952 41.5998ZM36.7412 41.6273L36.7124 40.6277C35.5839 40.6602 34.4555 40.6889 33.3271 40.7138L33.3492 41.7136L33.3713 42.7133C34.5042 42.6883 35.6371 42.6595 36.77 42.6268L36.7412 41.6273ZM33.3492 41.7136L33.3271 40.7138L32.3731 40.7349L32.3952 41.7347L32.4173 42.7344L33.3713 42.7133L33.3492 41.7136ZM32.3952 41.7347L32.3731 40.7349L31.4191 40.756L31.4412 41.7558L31.4633 42.7555L32.4173 42.7344L32.3952 41.7347ZM31.4412 41.7558L31.4191 40.756C30.2629 40.7816 29.1068 40.8514 27.9509 40.9656L28.0492 41.9608L28.1475 42.9559C29.2529 42.8467 30.3582 42.7799 31.4633 42.7555L31.4412 41.7558ZM28.0492 41.9608L27.9509 40.9656L26.9969 41.0598L27.0952 42.055L27.1935 43.0501L28.1475 42.9559L28.0492 41.9608ZM27.0952 42.055L26.9969 41.0598L26.0429 41.154L26.1412 42.1492L26.2394 43.1443L27.1935 43.0501L27.0952 42.055ZM26.1412 42.1492L26.0429 41.154C24.986 41.2584 23.9304 41.2452 22.8749 41.1143L22.7518 42.1067L22.6287 43.0991C23.831 43.2482 25.035 43.2633 26.2394 43.1443L26.1412 42.1492ZM22.7518 42.1067L22.8749 41.1143L21.9224 40.9961L21.7993 41.9885L21.6762 42.9809L22.6287 43.0991L22.7518 42.1067ZM21.7993 41.9885L21.9224 40.9961L20.9699 40.878L20.8468 41.8704L20.7237 42.8628L21.6762 42.9809L21.7993 41.9885ZM20.8468 41.8704L20.9699 40.878C19.863 40.7407 18.7616 40.5668 17.6657 40.3562L17.477 41.3383L17.2883 42.3203C18.4277 42.5392 19.5728 42.72 20.7237 42.8628L20.8468 41.8704ZM17.477 41.3383L17.6657 40.3562L16.7227 40.1751L16.534 41.1571L16.3454 42.1391L17.2883 42.3203L17.477 41.3383ZM16.534 41.1571L16.7227 40.1751L15.7797 39.9939L15.5911 40.9759L15.4024 41.958L16.3454 42.1391L16.534 41.1571ZM15.5911 40.9759L15.7797 39.9939C14.8054 39.8067 13.9223 39.4248 13.1208 38.8445L12.5344 39.6546L11.948 40.4646C12.9868 41.2166 14.1415 41.7157 15.4024 41.958L15.5911 40.9759ZM12.5344 39.6546L13.1208 38.8445L12.3444 38.2825L11.758 39.0925L11.1716 39.9025L11.948 40.4646L12.5344 39.6546ZM11.758 39.0925L12.3444 38.2825L11.568 37.7204L10.9816 38.5304L10.3952 39.3404L11.1716 39.9025L11.758 39.0925ZM10.9816 38.5304L11.568 37.7204C10.6561 37.0601 9.75158 36.3841 8.85449 35.6923L8.24381 36.4842L7.63312 37.276C8.5461 37.9801 9.46678 38.6682 10.3952 39.3404L10.9816 38.5304ZM8.24381 36.4842L8.85449 35.6923L8.09087 35.1034L7.48019 35.8953L6.8695 36.6871L7.63312 37.276L8.24381 36.4842ZM7.48019 35.8953L8.09087 35.1034L7.32725 34.5145L6.71657 35.3064L6.10589 36.0982L6.8695 36.6871L7.48019 35.8953ZM6.71657 35.3064L7.32725 34.5145C6.5565 33.9201 5.98297 33.1825 5.59675 32.2889L4.67881 32.6856L3.76088 33.0823C4.2816 34.2872 5.06658 35.2967 6.10589 36.0982L6.71657 35.3064ZM4.67881 32.6856L5.59675 32.2889L5.21413 31.4035L4.29619 31.8003L3.37826 32.197L3.76088 33.0823L4.67881 32.6856ZM4.29619 31.8003L5.21413 31.4035L4.83151 30.5182L3.91357 30.915L2.99564 31.3117L3.37826 32.197L4.29619 31.8003ZM3.91357 30.915L4.83151 30.5182C4.40609 29.5339 4.09651 28.5334 3.90107 27.5157L2.91902 27.7043L1.93696 27.8928C2.16065 29.0576 2.51411 30.1975 2.99564 31.3117L3.91357 30.915ZM2.91902 27.7043L3.90107 27.5157L3.72425 26.5949L2.7422 26.7835L1.76014 26.9721L1.93696 27.8928L2.91902 27.7043ZM2.7422 26.7835L3.72425 26.5949L3.54743 25.6742L2.56538 25.8628L1.58332 26.0514L1.76014 26.9721L2.7422 26.7835ZM2.56538 25.8628L3.54743 25.6742C3.3455 24.6227 3.20757 23.5608 3.13366 22.4883L2.13603 22.557L1.1384 22.6257C1.21783 23.7785 1.36613 24.9204 1.58332 26.0514L2.56538 25.8628ZM2.13603 22.557L3.13366 22.4883L3.06898 21.5495L2.07134 21.6182L1.07371 21.687L1.1384 22.6257L2.13603 22.557ZM2.07134 21.6182L3.06898 21.5495L3.00429 20.6107L2.00665 20.6794L1.00902 20.7482L1.07371 21.687L2.07134 21.6182ZM2.00665 20.6794L3.00429 20.6107C2.93634 19.6246 3.05293 18.6626 3.35524 17.7179L2.40281 17.4131L1.45039 17.1083C1.07115 18.2934 0.923631 19.5089 1.00902 20.7482L2.00665 20.6794ZM2.40281 17.4131L3.35524 17.7179L3.64276 16.8193L2.69034 16.5146L1.73791 16.2098L1.45039 17.1083L2.40281 17.4131ZM2.69034 16.5146L3.64276 16.8193L3.93029 15.9208L2.97786 15.616L2.02544 15.3113L1.73791 16.2098L2.69034 16.5146ZM2.97786 15.616L3.93029 15.9208C4.2579 14.897 4.6528 13.8906 5.1153 12.9013L4.20941 12.4778L3.30353 12.0543C2.8055 13.1195 2.37936 14.2052 2.02544 15.3113L2.97786 15.616ZM4.20941 12.4778L5.1153 12.9013L5.52052 12.0346L4.61463 11.6111L3.70875 11.1875L3.30353 12.0543L4.20941 12.4778ZM4.61463 11.6111L5.52052 12.0346L5.92574 11.1679L5.01985 10.7443L4.11397 10.3208L3.70875 11.1875L4.61463 11.6111ZM5.01985 10.7443L5.92574 11.1679C6.35767 10.244 6.93441 9.41285 7.65995 8.6713L6.94516 7.97196L6.23038 7.27261C5.34936 8.17308 4.64256 9.19018 4.11397 10.3208L5.01985 10.7443ZM6.94516 7.97196L7.65995 8.6713L8.33771 7.97858L7.62293 7.27923L6.90815 6.57989L6.23038 7.27261L6.94516 7.97196ZM7.62293 7.27923L8.33771 7.97858L9.01548 7.28585L8.3007 6.58651L7.58591 5.88716L6.90815 6.57989L7.62293 7.27923ZM8.3007 6.58651L9.01548 7.28585C9.74582 6.53939 10.5724 5.92352 11.4983 5.43611L11.0325 4.55123L10.5667 3.66635C9.45675 4.25062 8.46213 4.99161 7.58591 5.88716L8.3007 6.58651ZM11.0325 4.55123L11.4983 5.43611L12.3571 4.98399L11.8913 4.09911L11.4255 3.21423L10.5667 3.66635L11.0325 4.55123ZM11.8913 4.09911L12.3571 4.98399L13.216 4.53187L12.7502 3.64699L12.2844 2.76211L11.4255 3.21423L11.8913 4.09911ZM12.7502 3.64699L13.216 4.53187C14.116 4.05808 15.0615 3.7823 16.0598 3.7005L15.9781 2.70384L15.8965 1.70718C14.6266 1.81123 13.4201 2.16422 12.2844 2.76211L12.7502 3.64699ZM15.9781 2.70384L16.0598 3.7005L17.0167 3.62209L16.935 2.62543L16.8533 1.62877L15.8965 1.70718L15.9781 2.70384ZM16.935 2.62543L17.0167 3.62209L17.9735 3.54369L17.8919 2.54703L17.8102 1.55037L16.8533 1.62877L16.935 2.62543ZM17.8919 2.54703L17.9735 3.54369C19.1033 3.45112 19.975 3.33894 20.5099 3.18824L20.2387 2.22571L19.9675 1.26319C19.6414 1.35506 18.9486 1.45709 17.8102 1.55037L17.8919 2.54703ZM20.2387 2.22571L20.5099 3.18824L20.8731 3.0859L20.6019 2.12338L20.3307 1.16085L19.9675 1.26319L20.2387 2.22571ZM20.6019 2.12338L20.8731 3.0859L21.2363 2.98357L20.9651 2.02104L20.6939 1.05851L20.3307 1.16085L20.6019 2.12338ZM20.9651 2.02104L21.2363 2.98357C21.5054 2.90775 22.1466 2.85151 23.2842 2.87729L23.3068 1.87754L23.3295 0.877799C22.2057 0.852334 21.2858 0.891758 20.6939 1.05851L20.9651 2.02104ZM23.3068 1.87754L23.2842 2.87729L24.2382 2.8989L24.2608 1.89916L24.2835 0.899416L23.3295 0.877799L23.3068 1.87754Z" fill="#000DFF"/>
</svg>
